<mxfile host="app.diagrams.net" agent="Mozilla/5.0 (Windows NT 10.0; Win64; x64) AppleWebKit/537.36 (KHTML, like Gecko) Chrome/131.0.0.0 Safari/537.36" version="24.8.3">
  <diagram name="Page-1" id="-OcxE-qPpsX_lZszYGhc">
    <mxGraphModel dx="1221" dy="607" grid="1" gridSize="10" guides="1" tooltips="1" connect="1" arrows="1" fold="1" page="1" pageScale="1" pageWidth="850" pageHeight="1100" math="0" shadow="0">
      <root>
        <mxCell id="0" />
        <mxCell id="1" parent="0" />
        <mxCell id="N9teQNvzdhTx7NpvY3XJ-4" value="" style="shape=image;imageAspect=0;aspect=fixed;verticalLabelPosition=bottom;verticalAlign=top;image=data:image/png,iVBORw0KGgoAAAANSUhEUgAAArwAAAGwCAMAAAB8TkaXAAABHVBMVEUAAAAAADoAAGYAAP8AOjoAOmYAOpAAZrYzMzM6AAA6ADo6AGY6OgA6Ojo6OmY6OpA6ZrY6kJA6kLY6kNtNTU1NTW5NTY5NbqtNjshmAABmADpmAGZmOgBmOpBmZgBmZmZmkJBmkNtmtttmtv9uTU1uTW5uTY5ubqtuq+SOTU2OTW6OTY6ObquOyP+QOgCQOjqQOmaQZgCQtmaQtpCQttuQ27aQ2/+rbk2rbm6rbo6rjk2ryKur5P+2ZgC2Zjq2kDq2tma2tpC225C22/+2/7a2/9u2///Ijk3I///bkDrbtmbb25Db/7bb/9vb///kq27k///r6+vy8vL/AAD/tmb/yI7/25D/27b/29v/5Kv//7b//8j//9v//+T///9zw9v0AAAACXBIWXMAAA7DAAAOwwHHb6hkAAAbRElEQVR4nO2dC3vbOHaGZacTx0m7aWvl4kxme9FM4iS10jZde6Zr7W6nXdtqu7ankdValvn/f0YBEBBJiReQPARxoO97nkSUROnDIV4dH0IENIggiKkGfTcAgpoK8EJsBXghtgK8EFsBXoitAC/EVoAXYivAC7FVJ/BOBlIHYut/3w4Gv/r3KLMFQTTqAt7l2MC7OJQbu+fpLQgiUhfwzvdHems6+Our5e8lxskWBBGpMbzL8eN/+/PBzt+ZpJrKq7Odk9U+V/H/yRZFoyFIqgW8MbGjTXinu/+8P/jmRGK9J+9Pds+TLYpGQ5BUG3j3rkQ1sLf51MRgPd9XZcJ05yTZauoHQetqAW98HrYJ73K88y9R9J+Dx1eAF+pSbWpeVcXubZYNsSZpZAEvRK/u4BWgLg4VsqrmNVvtmgtBiQjgXZfOsgJUjDZAXaoDeEXN+/fR8vfyVG4iR3d/J0d3ky0IIlIH8EYzVUTsnOAbNqhTdQFvNH87GDxfXdHwzdoWBNEIV5VBbAV4IbYCvBBbAV6IrQAvxFaAF2IrwAuxFeCF2ArwQmwFeCG2agzvL93LhYcrFwRDaAN43bogGEIbwOvWBcEQ2gBety4IhtAG8Lp1QTCENoDXrQuCIbQBvG5dEAyhDeB164JgCG0Ar1sXBENoA3jduiAYQhvA69YFwRDaAF63LgiG0AbwunVBMIQ2gNeti5/BDAYDFzbWWmsP4PXDxctg1MpG3dtYa709ruBt+ja9KNtyysNfLG/h9U0W0Zh+BLzbDm/3NtYCvBbKtpzy8BfLR3hR82bfj4WyLSc8+CXyEl6mNqYfS+G9e3epbu8/DF/drG5yAAC8lQK8dDamH8vgvR2+VPA+nB5H16/NTR4AgLdSgLeOvn79WmJj+rEE3osXv40z7/2nS5mE9U0eAIC3UoC3hr5+VfRSlA1372+i+49n+kY88ESoY7461VeIgar70Qbe21eKWn2jnyv4MLBQtuWd5I7NbBGQC+vMuwEA4K0U4K2jr21r3hW8qHkJBHjpbEw/2sD7cHoUjzYcYbShscKE99GjR3avsN4x12b9ca1KeOU/jPO2V5DwPnpkCaX1jrk2G49r4Rs2wNvc5lEtNbbZeFwL8ALe5jaBZd7/yVdb3GhldYSIFSS8Pte81gAA3kqFCW8/NqYfAW9Q/R1UMIA3T1ZHiFiAl87G9CPgDaq/gwoG8ObJ6ggRC/DS2Zh+BLxB9XdQwQDePFkdIWIBXjob049u4Z3vj+T/z87N/dVWotlgMHh8lfsUlayOELEAL52N6cfu4BUM5sC7e56P7EpTucfk8RXg9delbxvTj53Bq+bgb8D77A97Mbzz/cFgJLZ+fn4VLT+fLA4HuwrWxZsT8f9yPAK8/rr0bWP6kR7ezTVQ0vCeTySy55JRcTN/9sfPYuP51eQgmu7JPWaiYjC7Nm1avbYH1d9BBeNd5j1ffGcqgsW3At7zqcD2QLIs7ooHZ3vJrk2bVq/tQfV3UMH4VvMKIqcHisvJQBQKMvk+/5OqGgaDHVkwiCyc7NqVrI4QsQAvnY3pR8ejDYLI5ecvIv8ejuKy4VzcfX4VZ10p1LwMXPq2Mf3oHl415KDO2Z6eqEw8OBB5+MBUuxht8N+lbxvTjz3Aq/icDgbfvB1phkXCPYyrhgjjvL241FxxjzSYYm+/4PVEVkeIWF7DW3etU8pgSrwBb46sjhCx/Ie3T9WLxvQj4AW8yLxagLfogHvtUo9d1Lw9yuoIEctveHnZmH4EvEH1dwjBxOuUldmYfgS8IfS3Y5dObfQKkWU2ph+3Et7+1pyF7AR4C5VteY2s0ELIvJYCvOXKtpz88Ocf8IBcUPP2qGzLqQ9+wQEPyKVvG9OPgDeo/g4qGMCbJ6sjRKxg4JVL5tWwabTCnhbgzZHVESJWKPCqxUrtbZqtbarlGbxyysRuwbWO8cXp5lLI1KYS5ZWSVkeIWEHBW1NNvTqDt0AJr+KkcQNeOYEimpo5lpvKopm+5+IadchCcebtavd66izzquG6dXgVemq2pZrqPn/+T3ICvMyq8t6z/xCP/qxnw39R9349ime10c4Osvp4EyuUzBt2zbv5dUkC73Kss2481X2+r2b/yBls8p4uG+LZ8P+l7s3EDgcR9Yx4qyNErGDg9cDG9KPbzKuS7M5JpKe6q1lA8SIOUarmVbPh483Fd1e/k0/Szoi3OkLEArx0NqYfuzthy6t5leZPzVR3Da9cPmfnJIFXzYY3c4t/853MubQz4q2OELEAL52N6Ue3ow1xAp2M9FR3A2+k6oIVvGo2vB5tmP6NrBpQ83rl0reN6Ue38KrRBgliPNVdwysL2jS8aja83lRziyPi0QarI0QswEtnY/qxh3HendVUd5N5J3q04Xw53v1ZExvfO1/+o4YV47z+uPRtY/rR92/Y5n/Z+KXFsjpCxAK8dDamHz2Hd2qWIiGV1REiFuClszH96Dm83cjqCBEL8NLZmH4EvEH1d1DBAN48WR0hYgFeOhvTj4A3qP4OKhjAmyerI0QswEtnY/oR8AbV30EFA3jzZHWEiMUDXss1ywiCsXECvDmyOkLEYgGv7WqR7YOxcgK8ObI6QsTiA2/fq/JWR2P6EfAC3kTIvIA394CzcEHNC3jzDnhALn3bmH50Cu9yrP5aFMwebjotXv6MsZrHWaTleO1JqyNELMBLZ2P6sTt4Hz16lJN5i6/HbTwtPv5xt6fFl5+1gTdZ9a2lAK+Nsoe7N3jVhP0CeOe/ehtfdC7+rX7vvfG0ePXC5efVC+M3Nq8XD37zdqTfpja8qfU2WwrwWmjtcLuHd3PBlE1490fJLArze++Np8XHbykwzswt0q9XDw5G+m2awQs5VZ/w2mTeZ6sEmfzee+Np8XHNG3Mudjfw6teLB0XZoN+mGbxlO1gLmddCvsBbVvOm4V393nv8dJNp8apsiCcWLz+vwRv/wvxIv01teFHzurX56kfNWzBUtgHv6vfeG0+Lj/eKX1iUefXb1IeXTICXzqZ3eOUfcjmfffV7742nxa/O9OIX6jdO1dSi5tVvA3gbKGe1sWqbNkuUVdr0Dq/83fe/+vY89XvvTafFr8Z59cBF/Mbm9cuxGm2YNBttoBNbePMWKa20abWyaaVNX/BSqvG0eKsjRCze8DZSa+uA4W0+Ld7qCBGLN7x1bQBvZ7I6QsRiCy9q3ra40crqCBGLL7z+2Zh+BLxB9XdQwQDePFkdIWIBXjob04/U8LKQ1REiFuClszH9WALv/Yfhqxu5cT2UOla3Ly/zAAC8lQK8dDamH4vhfTgVuL42924FxxfHRQAA3koBXjob04/F8N5/uozu3ulEe//xLHr48awIAMBbKcBLZ2P6sRjeu/c3ilklmYJFGSGLB6EnQh3zBUGVKoZXFgoGXnV790M6+xZ8GFjI6uNNLGReOhvTj3aZ9zY+cxNa1b0F78dCVkeIWICXzsb0o13Ne3FkHi2C12XbObogGEKbangfTo/MaENcLMj0+/BTwVCZy7ZzdEEwhDbV8OpxXpl8dfVwPRy+WA049Nh2ji4IhtDGAt5y9dh2ji4IhtAG8Lp1QTCENoDXrQuvYKpWwWtuY7mSX7kN4HXrwiqYyvVHG9vYrqFabgN43bqwCqbnNaUrowG8bl1YBYPM216c+tsTG9S8gJetTVDBAN4eXawWjaMVY3hzVoUDvL25ZJc8ZB5M5zZ563HWgncanw0eAF4KuV/Zlr0su2YT3sWhoXY6sFiLpqsut2g7E5dsdzAPpnObVvAma42u3wG8DfUVNW8NbbKLmtcTFwRDaAN43bogGEKbHHjV6s6rnzUBvBxtCFxslsgrsiFZXq/aZhNe+fM5UpOiH/IDvP7btHexWpy0wIZmYdNKmxx4J3vrG4CXnQ0RvG1EEIWR/WjDofmZyJlV6iVsY922c3RhEwzLzAt4Q7DZ0pp3OTZfrJX8/i/g9dwmqGBq1LxTnXATigEvO5uggqkzVDZRXwovDu3GynpsO0cXBENokwNv/INmtj+x02PbObogGEKbPHhrqce2c3RBMIQ2gNetC4IhtNmAF1eVhWATVDD1rufVI724npetTVDB1CsbJphJwdwmqGBQ83rigmAIbQCvWxcEQ2gDeN26IBhCG8Dr1gXBENoAXrcuCIbQJg/e5XiUQyngZWRD6FK2qlgTm1qrlJXb5MGbXNILbb3UoKnH76feM33H7kreWA0+e1QfPI4u7ILpd2Xe8mjy4F0cxhaYScHWhhheQpuu4a2l+s2vLW797YHN9ta8gJe9TVDB1IR3OhiMLAvfHtvO0QXBENrkwjt5/N+Ho+UY6zY4s8lZXa4DF3IR2xQdhZpDZXK0DFPfndnkretJ70IvWpvCowB4/XApgReSsj5mvxSUDVNZNiwOcT2vK5vCbiN1oZeHmTeKZtbXogNeEhtidnnCS1Lz1hJt82u1naMLgiG0AbxuXfwMpunaYhkb4gXKimzSj6/Da74bxtfDnG3quTRe1TFtQ700ZIFN5vG8zKuWK7O8tqyb5lq1naOLl8G0Xou3i0V5LaLJg1dji6Eyvjbbm3kBL3ubLa15pXTZgHFetjZBBdNknNduOkWPbefogmAIbfLhraEe287RBcEQ2gBety4IhtAmF161ujTGeRnbBBVMzanvVlfyAl5/bYIKprup7z22naMLgiG0yc+8gJe5TVDB1Kt57b6eALz+2gQVTM2yARfmMLcJKhgMlXnigmAIbQCvWxcEQ2iTBy/KBvY2QQXTIPMu3lj9BmaPbefogmAIbYrhjWb41Xe2NkEF0whelA1sbShdKFeJbLDKXolNCbwTZF62NoQuZWuS1rVpsr5piU0evPqEze533+s3haztHF34BdP3ytIl0ZRkXju1OjDt2s7RhV8wzDIv4GVvs8017zS93NP9h+GrG7V1PRwOX16mHgC8ntoEFUyLCZgPp8fR9Wu1eXG89gDgpbchWbbMl2DqqDjwBtfz6qGy+0+X0d27S0ntj2fZBwAvvQ3NgpGeBFNHJYE3h/fu/U10//Esrh+Gw+PUA0+EcgthqLHcr4jrk5ods+Ky4faVYfXuhzOZfZMHpAg/e0VC5iV3IZKHmTd7wpYkWqWL4+wDhM0v0lbBi5rX3iYf3rSyJa6AFzWv/zZBBWMPr/5BikQPp0d6cEHWCw8/XSYPAF5fbYIKpgW8elhX5trr4fDFWYRxXv9tCl1oV8Prbm29jOzLhikWl+ZvU+RCuw5ph6uaZtRgqMxOPbado4sP8NKqx2jy4K2lHtvO0cUHeMlcvIQXa5Vxt9nWmhdrlQVgE1QwqHk9cUEwhDb5mRfwMrcJKph6NS/WKuNuE1QwTeaw4YSNr01QwWCozBMXBENoA3jduiAYQpt8eDNz2AAvP5uggmkxhw3wMrQJKpgW04AAL0OboIIBvJ64IBhCmzx4UTawtwkqGJyweeKCYAht8uGtoR7bztEFwRDaAF63LsyCqVhbrL5N1wvtqfO15dhqdV7A66cNkUvVqo61bZotE2kP73w/LnYndlfn1G5JfbHqbz9sKOHtf4Fee3gne+sbgJedzZZm3uRKdIzz8rXZ0poX8IZgE1Qw9vAux2Z8d4ofVGFrE1QwNWreqU64CcWAt0MbknX1Kl06ErFN0bGoMVQ2UT8DtDi0GyujbX6ttnN0WbehWdG0yqUr0doUHos6X1KoZRvsfsgK8La0cb9+s+eyOGbJ4znw1hJx39ZpO0cXZN5iAV7PXVDzlqjoWABeP1wQDKEN4HXr4samuzXEsu8MeBu3naOLE5vuVm9ce2fA27jtHF3cwdud3AZTYgN43bog8zZQZ/BCHkoQxu6dWwiZN6DMG1gwKBs8cUEwhDaA160LgiG0AbxuXRAMoQ3gdeuCYAhtAK9bFwRDaAN43bogGEIbwOvWBcEQ2gBety4IhtAG8Lp1QTCENoDXrQuCIbQBvG5dEAyhDeB164JgCG0Ar1sXBENoA3jduiAYQhvA69aFSzB2C+I1tam53B7g9cOFSTCWS5E2tKm70Cng9cOFSTDdrCrddIlpwOuHC5NgkHmpxKO/vbJBzQt42doEFQzgdelStv4Yu2Ac2+QdO8DrzqV05UduwTi2yT12gNedi/tFbQOTbdcAXnqX3A6gtykTMi/gbagSdvkF49gm79gBXj9cEAyhDeB164JgCG0Ar1sXMpvydSDduPR9zACvWxcqm4pVTN249H3MAK9bF1Ks3Kj7YKoEeP1wQeZtIMDrhwtq3gYCvH64IBhCG8Dr1gXBENoAXrcuCIbQxgLe+w/DVzdq6+774fA4iq6Hw+HLS8DrsU1QwbSA9+H0OLp+rSj+eBbd/XAWXRwj83puE1QwLeC9/3QZ3b2TifZWInxx/PDjGeD13CaoYFrAe/f+RuVcjfLHM1FGqOohip4IFb4OghypGN7bVyl4H06PVOWQZN8eP3gcXRAMoU01vOnMe//hSD+6qnt7bDtHFwRDaFMNb1LzRnffr07VAK/XNkEF02q04UiPNmh2ZR3x8BOGyny2CSqY9uO8IvnK8V15qiZuX6wGHHpsO0cXBENoYwFvuXpsO0cXBENoA3jduiAYQhvA69bF62BqLiHWPhhLQ8Drh4vPwdRdvLF1MLaGgNcPF5+DcbAob45aRAN43br4HAwybwfyuL99tUHNC3jZ2gQVDOC1cSlbY4zQxoGYw7vWEYC32qV0dUc6GxfiDe96RwDeahf3C9FCxbIAAPAmLuvHrCMbF0Lm3TZ4UfP6YvMVNa+PLgiG0AbwunVBMIQ2gNeti6VNxRphRC6tTQFv47ZzdLGzqVqdkcalvSngbdx2ji414O1FHQTTXoDXDxdk3gYCvH64oOZtIMDrhwuCIbQBvG5dEAyhDeB164JgCG0Ar1sXBENoA3jduiAYQhvA69YFwRDaAF63LgiG0AbwunVBMIQ2gNetC4IhtAG8bl0QDKEN4HXrgmAIbQCvWxcEQ2gDeN26IBhCG8Dr1gXBENoAXrcuvgVTe3myZjbVKmtIZ/BCnKXWaey7EVKtGoLMu5WZ1/1yvGWqGw3gdeviWTClzNDZtGwI4PXDxbdgWrHLvuala37ttnN0QTCENoDXrQuCIbRhAK+L5e9+6b0jOLp0a5P0O194nSw8+ksY/e3YpVObVL8zhxfaTgUBb+cuQSQr1y7IvDZRdG8SRH+7dkHNWy30t6cufdsAXrcubRchs1RFMFStALyN287QpfXyj5YqD4asFYC3cdsZurhfcLdQFOEA3sZtZ+hChk2FkHkBL73csIuaF/DytQkqGMDriQuCIbQBvG5dEAyhDeB164JgCG0Ar1sXBENoA3jduiAYQhvA69YFwRDaAF63LgiG0AbwunVBMIQ2gNetC4IhtAG8bl0QDKEN4HXrgmAIbQCvWxcEQ2jTGt5g9KTvBlAqqGAqowG8QfV3UMEA3koF1d9BBQN4oXAFeCG2ArwQWwFeiK0AL8RW2wzvw+nwxVkU3X8Yvrrpuy2tdff98OVlIMHcvUsiKQtom+G9OI5uX908nB5H16/7bktb3X88i64DCeZWfgx1JKUBbTG8958uzY36qLPW3fsbGUkIwVy8+K2IQEdSGtAWw3v3/l9l2aC6XeQt3tKZN4xgJK06ktKAthne74/lIRKVQwD9rWvDMIKR8OpISgPaZngtPttsdPfDWXT78jKQYJB5q3T/D+q4hFAmRiZRhRHMHWreSl2osuHh9Ij/CbrJvIEE806ONhzFow0lAW0zvKJMDGZoNLodhjNojXFeKHgBXoitAC/EVoAXYivAC7EV4IXYCvBCbAV4M1qO99TtdK9oj/nTk/wXDpR2z6PpYOdE/PuS7Fjwmk0t3qgdJ4PB46vU7XI8Sp6MNZNmo5TxgdlhprajWWEE4QjwZjUV9Bla6mg5PtBbi8OR+tdEkx2J3/TxlfoQmVv9UYqf1DvKZi4OBdraeL4vHGfivrCWn5XFt+eNWsBKgDerOEnOn9Xt+gRe+Q7WqTajxeFA8qnIn+2em9s4o+onY01VQlamxniyF3/mRNPlzfSgwCQkAd41TWSvy1Q334//GMu/yzLz6VvB5fzpl331N1s+tBtjvoJXvuzPxL89CXDyGrNv5rV7MXOmSJmp18Tk6wSqSFao6ie1mU7sAu00vDL1xvBuReIFvOuaqT/F+i//VMKxp7bNrYR3X+yjn0onwVgm84p/qdeYfdOvlU/JzJoUKYrPWVwSjMyteesE3tWWemP17EwVwOJ+TP1WJF7Auy75N1pWDf8nmVRpNgYldavqS3Fr6JIPJ+dNKXhTrzH7mteapxTbqyIlDe+BuTUFdA68Cu3YeGTeTZ6wicQ7SVUZoQrwrkvUDfGfcXlCvxNTF2mkogQ8md5W5/kFmTf1GrOvea15SnolQxu5mbcM3jdx5p3vx+6mFdMD8YGYxX8TAhbgXdfs8Z/kn/HF4U4GwDx4U3RUwqv33YB3/uyPydBGbs2bgVd+CA42a964ajCtWHx3JSuURmeNnAR417V480X+GVd5a7aTWzYYAFN/mHPhTZcNO6m3ST0lXvi3ydDG6hwtPdqwmXn1gF56tEGNnZkaZqJO8gDvFmryF+rEXSbe/R11ppX+l4J3ORaAayoLT9j0a8y+yWv39Dci00HydULM20SP765u10/Ycsd591a7zJ9fRSgbtlP6T/BEVLy/UcMMm0NlJ8nwl86o5rwpxtP8Wxsq2zmJMq9V1KpTOC3N50Q/pW81hZlMmvqGTZe5svZWxUlcVExxwgZ1ruovRDLfC5ep/heDvAV4+5bFkGzxlRZZhV8oZAV4+5X60qJKlhnVOkOHIsALsRXghdgK8EJsBXghtgK8EFsBXoitAC/EVoAXYivAC1EqM/8o+8133vfgRdOVFocD/eWN3prFE67m+2belRTghShFA6+aQrqX2pKvFTfyO8TUVdSAF6KUpFEkyzg9zp/9Wl36JieljlaP6h3V3QTe9MV16uGY9WRL3siLPVO8A16IUhKtyYG+REjOThJbelpgNvPGO2kSl2NZG8xWk/EUpG9OMlvIvFDHEjSq5PvGLH+hkRUPZuDVO8XwztYvPVarp8Tr/5gtOTEgXQtLAV6IUhrS5ecMvBN5uhXDqy+w1ztlMm+i3MwrbuT1+LNdlA1QJ8rLvHp6f3HmlRI1b1I25Na80WSUZGQlwAtRKlvzxvCqm6cnJTXvuuTcJjPaoLY0tci8UIdKRhsMtXKQazD45u1oOS4bbVh7G1XbytfqKncazxacDdJT8wAvRKmai6S1W1MN8EKUArwQZCPAC7EV4IXYCvBCbAV4IbYCvBBbAV6Irf4frDzngcj8tUkAAAAASUVORK5CYII=;base64,iVBORw0KGgoAAAANSUhEUgAAArwAAAGwCAMAAAB8TkaXAAABHVBMVEUAAAAAADoAAGYAAP8AOjoAOmYAOpAAZrYzMzM6AAA6ADo6AGY6OgA6Ojo6OmY6OpA6ZrY6kJA6kLY6kNtNTU1NTW5NTY5NbqtNjshmAABmADpmAGZmOgBmOpBmZgBmZmZmkJBmkNtmtttmtv9uTU1uTW5uTY5ubqtuq8huq+SOTU2OTW6OTY6OyP+QOgCQOjqQOmaQZgCQtmaQtpCQttuQ27aQ29uQ2/+rbk2rbm6rbo6ryKur5P+2ZgC2Zjq2kDq2tma2tpC225C22/+2/7a2/9u2///Ijk3I///bkDrbtmbb25Db/7bb/9vb///kq27k///r6+vy8vL/AAD/tmb/yI7/25D/27b/29v/5Kv//7b//8j//9v//+T////QPYpjAAAACXBIWXMAAA7DAAAOwwHHb6hkAAAbk0lEQVR4nO2dC3vbOHaG6aSJ46SdtLVycSazvWgmaS522qZbe6bWbjvtOlbbtZ1GVmtZ5v//GcVVIilQJI4AAqC+73kS0RL16hh8DUGQCGU5giSaLHQBCEIN5EWSDeRFkg3kRZIN5EWSDeRFkg3kRZIN5EWSjRd5RxnPPtv639dZ9t2/541bCGIfH/LOj7S8swO+ce+saQtBCPEh73RvqLbG2V9ezH/PNV6/hSCEkOWdHz38tz/Ndv5Gd6CFPnSyc7zY50L+v37LxS+CbF82kFcaO1yVd3zvH/eyB8dc613+8+je2fqtTX8JZDuziby7F+yZf3f1ppHWeronhgTjneP1W9QakO3OBvLK11yr8s6Pdv4pz/8ze3gBeRGf2WTMK0asu6vDBplRk7KQF9ks/uRlUs4OhJ5ifLtui14+ss1xIG81qkdlUmK2AfEZD/KyMe/f5vPf85dyIz6T+zs+k7t+C0EI8SBvPhGDiJ1jvMOGeI0PefPp6yx7uvj0woMWWwhiH3yqDEk2kBdJNpAXSTaQF0k2kBdJNpAXSTaQF0k2kBdJNpAXSTaQF0k2ZHm/EkK6U1hygiX3nwx5A4NBppMhb2AwyHQy5A0MBplOhryBwSDTyZA3MBhkOhnyBgaDTCdD3sBgkOlkyBsYDDKdDHkDg0GmkyFvYDDIdDLkDQwGmU6GvIHBINPJkDcweDvIWZa1ug7yJgXeCrJYOqnFdYHlpWKCxKadbBrVKttAzuqyGVkfR8jb0E42jWqVbSCj53Ufm3ayaVSrbAU5jTGvG6s6ik072TSqVUAmk/VxXCvvzZtzcXn7fvDianFhFMCbaD7iq1GtAjKZrI/jOnmvB8+FvHcnh/nlS31hFsCjau7jq1GtkhD527dvnsiLVMiLRzTvrLJG3i/P/kX2vLcfz3knrC7MAniVzXXojeow6ZC/fdMudVXz8hHNO6u0GTbcvL3Kbz+cqgt2xSMWz34h8eRbmDQX1kbe6xfCWnWhbqv5Y0gi5B7BZdIh96vnNQjgUTX3ITeqyyRE/pbemHchL8a8PgIymayPYxt5707eydmGd5htcJdekO/fv++Ca4nRx7FRXv4P87we0gfy/ftO7LXF6OOId9ga2sliX7v0gXzfYWzKUIG8dofLXfpA7lnP+z/mbKqb29i0k8W+dukFOeIxr4UA+mrIC7J3sj6OkNdho1oFZDJZH0fI67BRrQIymayPI+R12KhWAZlM1scR8jpsVKuATCbr4wh5HTaqVUAmk/VxhLwOG9UqIJPJ+jh2K+90b8j/f3Kmf15sLTPJsuzhhfEmV/HVqFYBmUzWx9GfvMxBg7z3zszKLjLme4weXkBekGt3VvEmrzg9f0XeJ/+6K+Wd7mXZkG39+vQin386nh1k94Sss1fH7P/50RDygly7s4p7eVeXRynKezbiyp5xR9nF9MkfPrGNpxej/Xy8y/eYsBGD3pVamm3tzhrVKiCTyfo4dt3zns1+0COC2fdM3rMx03afu8x+ZFdOdpe7Ukuzrd1Zo1oFZDJZH8eOx7zMyPG+8HKUsYEC73yf/lGMGrJshw8YWC+83NVXfDWqVUAmk/Vx7Hi2gRk5//SZ9b8HQzlsOGM/Pr2QvS4PxrwgN++s0r28YspBvGZ7fCx64myf9cP7erSL2QaQG3dWCSCv8HOcZQ9eD5XDrMM9kKOGHPO8CZMNS+gZV9WzJ1d2VsE7bA4b1Sr9IxsWLzWvZ2pNru6sAnkdNqpV+kduvZK0Nbm6swrkddioVukfGT1vF7FpJ5tGtUoPyRjzdhCbdrJpVKuATCbr4wh5HTaqVWIkr18izG/NTY9d3FkF8jY1qq9ESG5YnNFrzY2PXdxZBfI2tJPFvnaJkNz9GryVtP0FVSBvQztZ7GuXCMmNAqHnDR+bRrXY1y4xkpv8wZg3fKwa1VdAJpP1cYS8DhvVKiCTyfo4Ql6HjWqVpMhqJTyH5MraepC3bWzayaZRrZISWa9B6o5cXdU0BXn5KRP3aj7rKD+crj8KWdgUcflJSZt2smlUq6REdrmItHk96W7lrcnSV/bqcUVefgJFPtbnWK6mrGbxpy4+o47URagWH9Fbzyvm7aryCvXE2ZbiVPfp03/gJ8DzXpX/9OQ/2LW/qrPhP4uffjOUZ7W5PTvI5o/cpkewSlLkbRnzrr5vspR3fqR6XXmq+3RPnP3Dz2DjP6lhgzwb/r/ETxO2w37u+ox4m3ayaVSrgEwm6+PYbc8rOtmd41yd6i7OApKLOOSFMa84G15uzn64+B2/0e0Z8b4a1Sogk8n6OPp7wWYa84pMH+tT3ZW8fPmcneOlvOJseH1u8W9/4H2u2zPifTWqVUAmk/Vx7Ha2QXago6E61V3Lm4txwUJecTa8mm0Y/xUfNWDMC3JxZ5Vu5RWzDVxEeaq7kpcPaIvyirPh1aY4tzh3PNvgq1GtAjKZrI9jgHnencWp7rrnHanZhrP50b1flbHyp7P53ytZMc8L8mJnldjfYZv+Ofmu9fHVqFYBmUzWxzFyecd6KRKn8dWoVgGZTNbHMXJ5/cRXo1oFZDJZH0fI67BRrQIymayPI+R12KhWAZlM1scR8jpsVKuATCbr4wh5HTaqVUAmk/VxhLwOG9UqIJPJ+jhCXoeNapW0yRssS9ZAbrOzCuR12KhWSZq8yYKQ68mtdlaBvA4b1SpJkzdZinc9udXOKpDXYaNaJWkyet5g8dWoVkmbjDFvqPhqVKuATCbr49ipvPMj8dxSc/Yw9bR4/jXG4jzOusyPKjf6alSrgEwm6+PoT9779+8bet76z+OST4uXX+72uP7jZ5C3FIsV7SzJVimXEZe84sT8Gnmn372WHzpn/xbf904+LV7ccf5pcUcJ1vdnVz54PVQYyNtiHVMy2SqVMiKRd3VhlFV594bLsyj0972TT4uXSKZx6dwidX9xZTZUGMgbwQrShRBbw5+8bXreJ4sOcvl97+TT4uWYV3rOdtfyqvuzK9mwQWEgL3reNvKuG/MW5V1837u8mXJavBg2yBOL558q8spvmB8qDOT9ijFvG3nNU2Ur8i6+7518WrzcS96xrudVGMjbC3JwefkTOT+fffF97+TT4hev9OQdFbgwpmZjXoWBvGtTWT/MIbkRnpa8/Hvf/+L7s8L3vVNPi1/M86qJCwnW958fidmGEWYbGlNddtQduRmehLwuQz4t3qadbBrVKvGRPa3CW4ijmvVxTFhe+mnxNu1k06hWiY+MnrfDnpccm3ayaVSrREjGmBfyguyZrI8j5HXYqFYBmUzWxxHyOmxUq4BMJuvj6FreJOKrUa0CMpmsj+MaeW/fD15c8Y3LAc+huHx+bhbAq2yu46tRrQIymayPY728dydM15f6p2vm8ZfDegH8WOYpvhrVKiCTyfo41st7+/E8v3mjOtrbD6f53c+n9QL48sxLfDWqVUAmk/VxrJf35u2VcFaEd8FsGMEHDyyPWDz7hSCNqZeXDxS0vOLy5qdi71vzx5BEfPUIVgGZTNbHsV3Pey1fubEsxr01vCTiq1GtAjKZrI9juzHvl3f62jp53VcYBznBkvtPbpb37uSdnm2QgwXe/d79UjNV5r7COMgJltx/crO8ap6Xd75q9HA5GDxbTDh4rzAOcoIl95/cQt718V5hHOQES+4/GfIGBoNMJ0PewOBEyOXV8/KVa1wF8qYEToNcWbc033Ql09pA3pTAaZBdryFdG8ibEjgNMnpeWoVxkBMsGWNeyOsZDDKdDHkDgz2SN1iMrCHkmhtLgrwpgf2RN1kGsiHUmptL2lzesXwtuQ95/YM9yxth3LXGqryzA23tOGuxFg2lWRM0IcGSm00hJ9aed7nWaPUHyJsY2Zu7GPN6CeTdJjLkDQwGmU42yCtWd158rQnk9QsOQ25cSo9M3vCRNpSXf30Oz6jui/wgb/Lk5kVMqeRNH2lDeUe71Q3Im2TJTfJ2Fyc1m3auyisGDSKTVl2vzYORKoyDnGDJW9jzQt5uwRjzUskGeedH+o21Nd//C3lBjoC8Iq/4XqmyxZA3yZL7T16VNx+JN4VnB+3myrxXGAc5wZL7TzbIK7/QrO1X7HivMA5ygiX3n2yS1yreK4yDnGDJ/SdD3sBgkOnkFXnxqbJuwSDTyas97+wgUzO9+DxvB2CQ6eRVeVlGOJOiMzDIdLJRXpt4rzAOcoIl958MeQODQaaTIW9gMMh0MuQNDAaZToa8gcEg08kmeedHQ4OlkLfv5NXVx+rWI4ukZpO8y4/0IlsUMT3acE2cKa+Y0/LkSx7vf15xkBMs2ZZssQZvJDWb5J0dyLJxJkUH4HjIq6qmKK9VvFcYBznBkrdzzAt5OwSDTCeb5R1n2bDlwNd7hXGQEyy5/2SjvKOH/30wnB9h3YYOwERym0X0wtZMW+bPxVQZny3Dqe9dgGnkVsuXBq2ZuMAq5E0JvIG88cdza5jkzcd82DA7wOd5OwCj57UlF3Y2yZtPWn8WHfKGIbcxYyvHvFYhFBidCSHBINPJkDcw2AdZrQ/Wec0broC2hlyzc1Ve/d4w3h7uBuyBrFdm7LrmTdeerCfX7WzqecVyZS0/W+a9wjjIKZXc8eq75WxYu6uPRGKqrAswet4W5LqdIW9YMMa8bcg1Oxvk1cMGzPN2AAaZTjbKK+d5251O4b3COMgJltx/sllei3ivMA5ygiX3nwx5A4NBppON8orVpTHP2wkYZDrZJG/LT/JCXpDDkk3yWp367r3COMgJltx/srnnhbydgUGmk03ytnx7AvKCHJZskhfrNnQIBplONva8NvFeYRzkBEvuPxnyBgaDTCeb5MWwoUMwyHRyfc87e9XqOzC9VxgHOcGS+0+ulzef4FvfOwCDTCevkxfDhg7AnZFNi+bVLaRnR3YZV/KO0PN2AO6KbFqutHYJUyuy07h6wdbue9+9VxgHOcGSDfK2XTzaiuw0mCpLCYyel06GvIHBGPPSyWZ5x8Xlnm7fD15cia3LwWDw/LxwBeQFOSDZKG/pBMy7k8P88qXY/HJYuQLyuiTTVvdqQ3adMtll3a4+z6umym4/nuc3b865tT+flq+AvC7JxHUVW5Cdp0R2WrdjeW/eXuW3H07l+GEwOCxc8YjFOBBGCOl++VyHCdpy9cOG6xfa1ZufTnnvu7yCx/ufVxxk9Ly1ZKd1O37BtuxoRb4clq/wXmEcZIx568ku63Y8VVYe4jJ5MeYFOQ7yirzqCymWuTt5pyYX+Hjh7pfz5RWQF+SQ5GZ51bQu72svB4NnpznmeUORLRey81izgyX1ashWO68MG8ZYXLpLsAXZdglRfzW7WMzUHFdTZe3ivcI4yDGU3P1K0WsTuDW+4rMNwcHoeUvZXF6sVdYdGGPeMtlqZ4O8WKusQzDIdLJJXox5OwSDTCebe17I2xkYZDrZJC/WKusQDDKdbJIXi450CAaZTjb2vDbxXmEc5ARL7j8Z8gYGg0wnm+UtncMGeX2CQaaTjfLiSwS7A4NMJ5vkxde3dggGmU6GvIHBINPJJnkxbOgQDDKdbJQXL9i6A4NMJ5vltYj3CuMgJ1hy/8mQNzB4c3LNgmPUdcjaJJLWMMgrXq/Nj1qtzgt5g5NrlnokrwDZJpG0xqq80z052B21+3SO9wrjIMdbcu3Cu9so72i3ugF5Yy4ZPW/p1He1hXneLsAY89LJkDcwGGQ6eUXe+ZGe3x3jC1U6AINMJ6/IK99eK1kMeW3BNkvPJdMYhV8qkppX5c1H4muAZgft5sq8VxgH2QpstehnKo1R/KUiqdkgr1y2od0XWUFeU7pf27mrUFrDKniHLTS4eJzdkq2ylT0v5N0UbOFuOo3xLYUxL+TtEgwynQx5w4K9Lfr11UHNtcVFcgAhb1Cwv+UWv25ec31xkRxAyBsU3P2qurbpsjVsyZA3KLjeDwdBz4t4DdMjdAn1ibq4QtDzBgKDTCdD3sBgkOlkyBsYDDKdDHkDg0GmkyFvYDDIdDLkDQwGmU6GvIHBINPJkDcwGGQ6GfIGBoNMJ0PewGCQ6WTIGxgMMp0MeQODQaaTIW9gMMh0MuQNDAaZToa8gcEg08mQNzDYQF6/RF77BfQSbGbImxR4lbx+cVKLpUsTbGbImxS4Rt71IZKdJRIy5A0MRs9LJ0PewGCMeelkyBsYDDKdDHmrMa8zFnXJLsmtllmLpGbIW0nNCo8xl+yS3G6By0hqhryVdL/mbXzpoJmdkCFvJTVHL+aSXZIhr9MKuyabD17UJbskt3E3lpohb2AwyHQy5A0MBplOhrwOwaQVH8M2Bm2RykgOIOR1B6atVxq0MYhLrEZyACGvO3D3Kz+7iZ/WoAXyBgLTTEDPSyZDXofgBEUglRzLAYS8gcEg08mQNzAYZDoZ8gYGg0wnt5D39v3gxZXYuvlxMDjM88vBYPD8HPKCHJjcLO/dyWF++VJY/OE0v/npNP9yiJ4X5AjIzfLefjzPb97wjvaaK/zl8O7nU8gLcgTkZnlv3l6JPlep/OGUDSPE6CHPH7HU3g9BOkq9vNcvCvLenbwTI4dl7+v9zysOcoIl95/cLG+x5719/05duxj3eq8wDnKCJfef3Czvcsyb3/y4eKkGeUEOTm6Wl48U5GyDcpePI+5+wVQZyKHJzfKqeV7W+fL5Xf5SjV0+W0w4eK8wDnKCJfef3ELe9fFeYRzkBEvuPxnyBgaDTCdDXn/gdquK5a33tE2CzQx5IwG3XM8xt1r50SYJNjPkjQTcYp1d+zV3PdecFhnyegOj5/VNhrz+wBjzeiZD3sBgkOnk1OWtLK0FeduQW61HRiJvnG2St7qoIeRtQW63EiSFvHm2Tl6EkI2aHfK6SPU4oOdtQYa8cciLMS+FvKm7sbRG6vJ2RU6w5P6TIW9gMMh0MuStxrx6V9Ql15NpS5G1IXsK5N0kNesmxlxyPZm4CGQLsq9A3k3S/fK4vuOgWauJ5ABC3kpqjnfMJdeTIe92yYsxbzuyp0DelMAg08mQNzAYZDoZ8gYGg0wnQ97AYJDpZMgbGAwynQx5A4NBppMhb2AwyHQy5A0MBplOhryBwSDTyZA3MBhkOhnyBgaDTCdD3sBgkOlkyBsYDDKdDHkDg0GmkyFvbUoLiNmA7VYeS6MxoiRvLG9vI5Zu7PSOCDHoeauxXF6XvNpuEo0RJxny1qXsoAUY8nZFhry1wZg3djLkDQwGmU6GvIHBINPJXuWtW9Atkt89CrAXsmz4tGomkH3KW7uUZiS/exRgH2TV8EnVTCF7lxcJlGgU80dGzxsYjJ6XTvYpL8a8ocjfMObdWF4nFcZBTrDk/pP7Ja+npbm+RnO4lmnxq0ZXs2tyr+T1tSji12gO1yJtftXYanZO7p+8W5RAzRwNuX/y+kFHcrgWgbxfeyYvxrwuyC0SCblf8mK2YavIkDcwGGQ6GfIGBoNMJ0PewGCQ6WTIGxgMMp0MeQODQaaTIW9gMMh0MuQNDAaZToa8gcEg08mQNzAYZDoZ8gYGg0wnQ97AYJDpZMgbGAwynbyxvHHlUegC7JNgybHVDHlDJcGSY6sZ8oZKgiXHVnNP5EW2MZAXSTaQF0k2kBdJNpAXSTapy3s54DnMb98PXlyFLqZlbn4cPD/Pkyo5zppTl5fn+sXV3clhfvkydCHtcvvhNL9Mq2Qm7WGENfdAXi7D7cfz/ObNeehSWuXm7RWvN6WSZc0fTiOruQfy8q5ANW7oUlpF9bwplazbN7Ka05dXNCYbOcTUqusjB46JlczGC89OI6s5fXl5gybV8978dJpfPz9PqWTxgu3vfkbP6zpf3rH/IhuMrY3qvlIqWSS+cXry8t79zDuCu5N3Mb0MXhvV86ZUshynv4ytmZOXVz2LxTUBuT7Xg8Gz07RK5jXzYuOqOXl5ke0N5EWSDeRFkg3kRZIN5EWSDeRFkg3kRZIN5C1lfrQrLse7dXtMHx+b75iJ3DvLx9nOMfv3ebljzX1WM3sldhxl2cOLwuX8aLi8UWbCH2xYeOB9vcNEbOeT2t+gP4G85YyZfdoWm8yP9tXW7GAo/lEy2uH6jR9eiD8ifan+lOSNakde5uyAqa0eeLrHHnHCfmYPzf9WZt+fkSpIKpC3HNlJTp/YHvqlvJzQuqstZXaQcT+F+ZN7Z/pS9qjqRpmx6JDFg+oHHu3KvzlWOr8Y79c8SJ8CeSsZ8aPOu7rpnnwy5s/LvOdTl8zL6ePPe+I5m191T2q+kJff7U/Yv10u8PI+et/SfXelc3qQMhH3kearDlSYLFRVN6oHUx07U7soL+96pbxb0fFC3mom4qlYPfOPuRy7Yltfcnn32D7qpmInKKN7XvavcB+9b/G+/Cbesy4HKcLPiRwSDPWlRi/lXWwJsLh1IgbA7Gdp/VZ0vJC3Gv4czUcN/8edFN2sFKVwKcaX7FLbxa9evm4qyFu4j95X31ffJNxeDFKK8u7rSz2ANsgr1JYPPNQ0/oKNdbyjwiijr4G81bBxg3wa5y/od6R1uVIqX4rHu7fF6/yanrdwH72vvq++iT/WcmrD2POuk/eV7Hmne/LRdRXjffYHMZHPCT0O5K1m8vCP/Gl8drBTEtAkb8GORnnVvivyTp/8YTm1YRzzluTlfwT7q2NeOWrQVcx+uOAjFNKrxpQCeauZvfrMn8ZFvzXZMQ4btICFJ2ajvMVhw04BU7iJ3fGvl1Mbi9doxdmG1Z5XTegVZxvE3Jkew4zEizzIu4UZ/Zl44c473r0d8Uqr+K8g7/yICa6srH3Bpu6j913ed1e9IzLOlm8nSN9Gan53cVl9wWac591d7DJ9epFj2LCdUU/BIzbi/a2YZlidKjteTn+pHlW/bpJ66n+VqbKd47x0X2GteAmnovwcqZvUpbKw1JMW3mFTw1w+9haDEzmoGOMFG+I9zW+IlN4XXhf7NwbTDuQNnRZTsvWftCin/wOFciBv2Ig3LZrSskdt3UP3JZAXSTaQF0k2kBdJNpAXSTaQF0k2kBdJNpAXSTaQF0k2kBdxmdL5R+V3vk3vg9edrjQ7yNSbN2prcUXxDRvIi7iMG3nFKaS7ha3lFeMM8iJ+wm1kvaT8vPH0yW/ER9/4SanDxbVqR/HjUt7ih+vE1dJ1tbW4Yvrda8iL+Am3bLSvPiLEz05iW+q0wHLPK3dS8s6P+KBgsjgZj38iWX5SQ23pK+af/hnDBsRTmI2i832ll79QyrIrS/KqnaS8k+pHj8XqKXL9H7mlrxjvY8yL+IqSdP6pJO+Ir1kh5VUfsFc7lXreZep6XnYBeRFfMfW86vT++p6Xh415l8OGujHveHm6Ng/kRVymPOaV8oqLx8drxrzV8HOb9GzDvpxt2C9MP+hAXsRllrMN2tonfN3M7MHr4fxo3WxDBSOmdfl9Mc+LdBXLRdI2W1MN8iIuA3kRpE0gL5JsIC+SbCAvkmwgL5JsIC+SbCAvkmz+Hx5EHQzfygTuAAAAAElFTkSuQmCC;base64,iVBORw0KGgoAAAANSUhEUgAAArwAAAGwCAMAAAB8TkaXAAABIFBMVEUAAAAAADoAAGYAAP8AOjoAOmYAOpAAZrYzMzM6AAA6ADo6AGY6OgA6Ojo6OmY6OpA6ZrY6kJA6kLY6kNtNTU1NTW5NTY5NbqtNjshmAABmADpmAGZmOgBmOpBmZgBmZmZmkJBmkNtmtttmtv9uTU1uTW5uTY5ubqtuq8huq+SOTU2OTW6OTY6ObquOyP+QOgCQOjqQOmaQZgCQtmaQtpCQttuQ27aQ2/+rbk2rbm6rbo6rjk2ryKur5P+2ZgC2Zjq2kDq2tma2tpC225C22/+2/7a2/9u2///Ijk3I///bkDrbtmbb25Db/7bb/9vb///kq27k///r6+vy8vL/AAD/tmb/yI7/25D/27b/29v/5Kv//7b//8j//9v//+T///9RdDb1AAAACXBIWXMAAA7DAAAOwwHHb6hkAAAbSElEQVR4nO2dC3vbOHpGaaeJ46TdtLVycSazvWgmaS610jZdO9O1dttp17baru1pZLWWZf7/f1FcKVIERRAECIB83+dJJMs6+mDwGIYgEUpSBIk0ie8GIIhpIC8SbSAvEm0gLxJtIC8SbSAvEm0gLxJtIC8SbZzIO01oDsi1/32TJL/697TiGoK0iQt5VxMp7/KQXtk9U19DkFZxIe9ifyyuzZK/vFz9nmqsuoYgrWIs72ry6N/+NNn5GzmU5kbT+c5xdp9L/r/qmo3mI0NOC3m5seOyvLPdf9pPHh5Trffo19PdM9W19o1Hhp028u5dkjnAXvlbU6n1Yp9NDmY7x6prppURhKeFvPzZV1ne1WTnn9P0P5NHl5AXcZk2c142d90rTxt4pmplIS9iK+7kJXouD5mobKZbvtam2QhiRd7NiLGV6InVBsRlHMhL5rx/m65+T5/KTema7u/omq7qGoK0igN50zmbROwc4xU2xGlcyJsu3iTJs+x9DA8rryFIm+BdZUi0gbxItIG8SLSBvEi0gbxItIG8SLSBvEi0gbxItIG8SLSBvEi0MZb3F1XUt2rGHxxru4cKQ94wSgM2gCFvGKUBG8CQN4zSgA1gyBtGacAGMOQNozRgAxjyhlEasAEMecMoDdgAhrxhlAZsAEPeMEoDNoAhbxilARvAkDeM0oANYMgbRmnABjDkDaN03+EkSWpg1T1qKkPeMEr3HGZ7J22FlfeoqWxbXtOH8RJljxgHcHUSvTSsLI8j5G1yLCq7E7A6GHmtR9kjxgG8JVHMee1Y1VFqurNhAHcNy+O4Vd7btxfs8u7D6OV1dqEUwJloLmK/OwF3CcvjuE3em9ELJu/9yVF69UpeqAVwqJr92O/O3sLfvn3zUbmi7C/a8p4//y0fee8+XdBBWFyoBXAqm+2YdGd1+gx/+6bWyHHlqrK/NJ823L67Tu8+nooLcsNjEsd+IUHkm8fUt05H3puXzFpxIb63+QsRUwzGgi3pM9zDkVchgEPV7MegO7ek13CFRMHPeTN5MefdGsBdw/I46sh7f/Kerza8x2pDRXcOGH7w4EEztjFQqiyPY6289B/Weeu6c7jwgwcNZWwMlCvL44hX2GSPtOrO4cIPjNKusjyOkLd4LAy7c7hwn0be/1GnrW52o+yRVt05YDjUOW8DAeTNkBewc1geR8hrpTsBdwnL4wh5rXQn4C5heRwhr5XuBNwlLI8j5LXSnYC7hOVxhLxWuhNwl7A8jpDXSncC7hKWx7FbeRf7Y/r/0zP5dXZtnXmSJI8uld+yFfvdCbhLWB5Hd/ISBxXy7p6plc0yo/eYPrqEvICrYHkcncnLzscvyfv0X/e4vIv9JBmTaz8/u0xXn4+Xh8kuk3X5+pj8v5qMIS/gKlgeR/vylvdDyct7NqXKnlFHycXi6R8+kyvPLqcH6WyP3mNOZgzyrqZNa9p238cCcENYHseuR96z5fdyRrD8jsh7NiPaHlCXyZfkxvne+q6mTWvadt/HAnBDWB7Hjue8xMjZAfNympCJAh18n/2RzRqSZIdOGMgovL6rq9jvTsBdwvI4drzaQIxcff5Cxt/DMZ82nJEvn13yUZcGc17AtbA8jt3Ly5Yc2HO2J8dsJE4OyDh8IGe7WG0AXAfL4+hBXubnLEkevhkLh8mAe8hnDSnWeaOHa3fOSxvvrrdRWR5HvMIme8Q4gAup37M0bbyv6UZleRwhr+wR4wAuRHM/achrmCbHQq87AWfByOs2yh4xDuBiMOd1GmWPGAdw17A8jpDXSnf2CK7eJsx1Za3qkLdJd9amX/CWDRodV9arDnkbdGd9+gV3vw9vKbXNlscR8m45kHrpF1yvj6vKetUhb4PurE/PYB13Mef1l0bdWRvAXcPyOEJeK90JuEtYHkfIa6U7BwSzffIM4PX+epC3TZQ90qo7hwPzHUqbw7mdTWOVl54ysVvxXkf+5nT5VsjcVRab75RU9kir7hwObLaZdGFPaf/yVmTtK3neWJKXnkCRzuQ5luUU1cx/1cV71BGNMAk75LbF2cjLVuw25WXqsbMt2anui2f/SE+Ap6Mq/erpf5BbfxZnw39hX/16zM9qs3t2kPLXudVYMCC413Pe8isma3lXEzHq8lPdF/vs7B96Bhv9Skwb+Nnw/8W+mpM7HKS2z4hX9kir7gTcJSyPY7cjLxtkd45Tcao7OwuIb+KQ5ua87Gx4fnX5/eXv6DftnhFvvzsBdwnL4+juCZtqzsuyeCJPdRfy0u1zdo7X8rKz4eW5xb/5no65ds+It9+dgLuE5XHsdrWBD6DTsTjVXcqbsnlBJi87G16sNsz+is4aMOcFnIPlcexWXrbaQEXkp7oLeemENi8vOxteXGXnFqeWVxvsdyfgLmF5HD2s8+5kp7rLkXcqVhvOVpPdn4Wx/Kuz1T8IWbHOC1jC8jiG/grb4s+N0erY707AXcLyOAYu70xuRWI19rsTcJewPI6By+sm9rsTcJewPI6Q10p3Au4SlscR8lrpTsBdwvI4Ql4r3Qm4S1geR8hrpTsBdwnL4wh5rXQn4C5heRwhr5XuHDass/NY7j6Qt02UPdKqOwcN6+z5mL8P5G0TZY+06s5Bw0135IW8bbL9WJh056BhjLxdRtkjrbpz2DDmvB1G2SOtuhNwl7A8jp3Ku5qwvx4VZw+bnhZPP8aYncdZldVk45v2uxNwl7A8ju7kffDggWLkrX4/rvFp8fzD3Z5Uv/0M8m6BtfbVc1I5lwaN6ERedp5+hbyLX73hbzon/7LPezc+LZ6Bq88ZyB9Y8uTGh2/G4mEg7yast6Opi8q5NGmEW3nL+6SU5d0fr8+ikJ/3bnxaPH9IonHh3CLBsxuTsXgYyLsJu9siumkaNNudvDoj79NsgFx/3rvxafF8zss9J3eX8gqe3EimDeJhIO8m3MQbu5VzCU7ebXPevLzZ573zb5ucFs+mDfzE4tXnDXn5J8yPxcNA3hJs5G7f57wVS2UlebPPezc+LZ7fi4NVI694GMjbC9i7vPQPOT2fPfu8d+PT4rNnehwUD5ybU5M5r3gYyNsUXu8wZlZZxccvL/3c97/47iz3ee+mp8Vn67xi4YI/sORXE7baMMVqgwmc25jUqLKSj1ZemzE+LV7ZI626s69wq914i7vyWmy2PI4Ry2t+WryyR1p1Z19hjLyuRl7jKHukVXf2FsacF/ICtgnL4wh5rXQn4C5heRwhr5XuBNwlLI+jbXmjiP3uBNwlLI/jFnnvPoxeXtMrVyOaI3b54kItgFPZbMd+dwLuEpbHsVre+xOi6yv51Q3x+PyoWgA3ljmK/e4E3CUsj2O1vHefLtLbt2Kgvft4mt5/Pa0WwJVnTmK/OwF3CcvjWC3v7btr5iwLHYLJNIJOHkgekzj2C0FqUy0vnShIednl7Y/50XfzFyKm2B8LAHcJy+OoN/Le8GduJNm8d/MxY4r97gTcJSyPo96c9/y9vLVKXkvN8gPH2u6hwvXy3p+8l6sNfLJAh9/7nyqWyiw1yw8ca7uHCtfLK9Z56eArZg9Xo9HzbMHBTbP8wLG2e6iwhrzb46ZZfuBY2z1UGPKGURqwAQx5wygdJayxsd62u0Bem3Cs7fYEa2xpuvUukNcmHGu7fcqrv5e0xcq/QN6QSscIY+QNCY613ZjzQt5o2z1UGPKGUbpTuLAlmPdmm++SBnnDKN0lXNyM0XezW+xPqZR3xp8lHkDeXsLd77lbG7OfuSzv8lBaO0s09qKx0ZuhwLG2GyOvdPe73Ec+FL6AvH2Bv2HOC3kBY7UhGDjWdg8VVsjLdnfOPtYE8g4OrthUr3HlusdxIC/9+ByaadUH+UHefsNV25k2rVz7OA7kne5tXoG8g4KtbCRdtaG01WaX5GWTBpa51tDrpll+4FjbjZEX8kbbbsx5RVYT+cLals//hbyAA4BL8rLPlSpaDHkBBwmX5U2n7EXh5aHeWpmbZvmBY233UGGFvPwDzXQ/YsdNs/zAsbZ7qLBK3kZx0yw/cKztHioMecMoDdgALsmLd5UBjgUuj7zLw0Ss9OL9vICDhsvykkxxJgXgCGClvE3ipll+4FjbPVQY8oZRGrABDHnDKA3YAIa8YZQGbABD3jBKAzaAVfKuJmOFpZB30LB607FU4z5tK1fDKnnXb+lFEB62dmrhPk5S3DFH8+RLGje/U37gWNvdAay7F2+TodfRyMvbgTMpAMtUiJlq3Kdl5S2wcuRtEjfN8gPH2m7MeSFvtO0eKqyWd5YkY82Jr5tm+YFjbfdQYaW800f/fTheTbBvQ9Sw5gZ2HpotWuZqqYyuluHU96hh3a1Du2+2bBnktQnH2u5qecONjZ9ZJW86o9OG5SHezxszLBXpvnJd3MqbzrXfiw55g4X13O3bnLdRKh+5VbP8wLG2e6gw5A2jtBeYbSZmtXKDbc5cyCtfG8bLw72H+TaONis32WDS2RM2qq3me8vcNMsPHGu728hrP66bvYZV8gptsVTWc7iXIy/kHQjcuzkvjZg2YJ0XcNCwUl6+zqt3OoWbZvmBY233UGG1vA3ipll+4FjbPVQY8oZRGrABrJSX7S6NdV7AgcMqeTXfyQt5AYcnb6NT3900yw8ca7uHCqtHXsgLOAJYJa/myxOQF3B48mLfBsBRwMqRt0ncNMsPHGu7hwpD3jBKAzaAVfJi2gA4Crh65F2+1voMTDfN8gPH2u6hwtXypnN86jvgoOFt8mLaMDxYc688ebdg5Z1i5B0crLlLaXa38OQVT9j0PvfdTbP8wLG227K8DbaRDk/eRnHTLD9wrO3GyAt5o2035rz5zPLbPd19GL28ZteuRqPRi4vcDZAXsEdYKW/hBMz7k6P06hW7en60cQPk9QUXNiILvtnqbdMcPWHLn/p+9+kivX17Qa39elq8AfL6gotbQIbe7IoNKzuQ9/bddXr38ZTPH0ajo9wNj0mUE2HEcbrfT7d1HPZG9bTh5qV09fbHUzr6rm+gqfy1aPU75QeOp91MBy+VTeBia+1VVspbeMK2HmhZzo+KN1Q+cqtm+YEjavc3zHl1lsqKU1wiL+a8gMOAS/KKD6RY5/7kvVhcoPOF+58u1jdAXsA+4Xp5xbIuHWuvRqPnpynWeaOC6/a+a1W50cZ6Viurpw0zbC7dJ7h219E2lZttaWqzct1SmV7cNMsPHGu7a+V1GifN1oJV8jaKm2b5gWNtN0beXLBXWY/gQc15sVcZ4EhglbyY8wKOAlaPvJAXcASwSl7sVQY4ClglLzYdARwFrBx5m8RNs/zAsbZ7qDDkDaM0YANYLW/hHDbICzhMWCkvPkQQcAywSl58fCvgKGDIG0ZpwAawSl5MGwBHASvlxRM2wDHAankbxE2z/MCxtnuoMOQNo3RncGkzsq1w3dZlwcnLnq+tJlq780LeyODyNpDb4NpNI0OTd7HPJ7tTvXfnuGmWHzjWdjeVt1lCaLYaLss73du8Ann7A/d75F2/Ex3rvH2Eez3nhbyAY4FL8q4mcn13hg9UARw0XJKXv7xWsBjyOofVO9F1UdkRrPMDuVgqm7KPAVoe6q2VuWmWH9hb6Yo9QDuo7AjW+oGcvEjBtm3Q+yAryGsF7n6r5y7isMPwCls4pbWOtZPKvRt5IW/ncCt3Q+xunR8I8tqEY233UGHIG0bpFnCr/cKaVS6VgrzBwFG2u91OjY0ql0tB3mDgKNvtfgPeLdvxQt5g4CjbjZHXXF7Ed4hQPSzVJBh5/ZYGbABD3jBKAzaAIW8YpQEbwJA3jNKADWDIG0ZpwAYw5A2jNGADGPKGURqwAQx5wygN2ACGvGGUBmwAQ94wSgM2gCFvGKUBG8CQN4zSgA1gyBtGacAGMOQNozRgAxjyhlEasAEMecMo3Rau2xFve2VjGvIGA8fa7rR+L9Ktlc1pyBsMHGu7U5M9o5vsIe2q2S1hyBtGaYy8BjDkDaM05rwGMOQNozRgAxjytqTXm3JF+kPbgptvtwZ5bcIGdG47xEh/aEuwwUaXkNcmbCovIuK6tzdgyNuOzh2zSH9ojLy2m+UHxpy3BdzYXchrFY613UOFIW8YpQEbwJA3jNJVsNYOkD2rrA1D3jBKV8B6+5f2q7I+DHnDKL1NIX/x8jPrw5A3jNLBjX+Q17hZfuAA261jUN8qa8OQN4zSgA1gyBtGacAGMOQNozRgA1hD3rsPo5fX7NrtD6PRUZpejUajFxeQF3Dw8t6fHKVXr5jFH0/T2x9P0/MjjLyAA4Dr5b37dJHevqUD7Q1V+Pzo/usp5AUcAFwv7+27azbmCpU/npJpBJs9pOljkkoOQTpKtbw3L3Py3p+8ZzOH9ejr5nfKDxxru4cK18ubH3nvPrwXt2bzXjfN8gPH2u6hwvXyrue86e0P2VM1yAvYO1wvL50p8NUG4S6dR9z/hKUywL7hennFOi8ZfOn6Ln2qRi6fZwsObprlB4613UOFNeTdHjfN8gPH2u6hwpA3jNKADWDIG0bpAtx06zDNyuqHDeRnNoEhbxil83DjTRv1Klc8bBg/sxEMecMoXZLXURw2u3sY8oZRGiOvAQx5wyiNOa8BDHnDKA3YAO67vM120Aqn3XHAzfcns1V5CPI23LswmHbHARvsDGmp8nDkRVzG44Eegrx+Sg8Ahrxu4Wa9G06744BbuQt5rcKxtnuoMOQNozRgAxjy+im9uROYzx7T2pXMSeWWMOT1Urq0B6PHHtPbD9JF5bYw5PVSuvutdmvSwc9sH4a8XkqXhMHIawBDXj+lN33BnNcAhrxhlAZsAEPeMEoDNoAhbxilARvAkDeM0oANYMgbRmnABjDkDaM0YAMY8oZRGrABDHnDKA3YAIa8YZQGbABD3jBKAzaAIW8YpQEbwJA3jNKADWDIG0ZpwAYw5A2jNGADGPI6KN10rzF7lQ1KR3qsrMiLlMK2YxxcaY/ByGuvtMv9dXXi42f2AkNe+6UNDLI4YYG8kLcN3NxdzHlNYMgbRmnABjDkDaM0YAPYqbxm+7BB3qDhwkHtr7yGO2BC3pDh4kHtubxID2PPv1YwRt4wSkcDD0VezHn7CH8bxpy3RbP8wLG2e6gw5LVFt9jxq2VlPbiqfZEeK8hrkW6z12K7ynpwZfsiPVaQ1yLd/Za6BrH8M/uGIa8lulIO55Ux8kLetnQrdzHnNYEhbxilARvAkDeM0oANYMgbRmnABjDkDaM0YAMY8oZRGrABDHnDKA3YAIa8YZQGbABD3jBKAzaAIW8YpQEbwJA3jNKADWDIG0ZpwAYw5A2jNGADGPKGURqwAdxaXmUeW320OCoP8ocOozLkjbj00CtD3ohLD73y8HYkRnoTyItEG8iLRBvIi0QbyItEG1vyXo1GoxcX6d2H0ctrSw+pmfuT0fPT1Edl+jOPRkc+St/+QHt7SJVv366ryuK25D0/ov/fnxylV68sPaR+5ZuX1z4q0/gpfffxNL3yU/nDkZfKN/RXRlTNiluS9/7rKb24+3TBf0W6Cy3ppzIrSyzyUPr23TUt66vyx9OuK58//y2pJqpmxS3JSwZy+gdU/Gh2HlMvt+/+hU4bPFSmoQOAh9Ji5PXS3axk95WprZvFLcl7++MpHX3JH9HOe/MH9jvjoXLKJUp9lOazPg+V2bThuYcDTeUVVbPiNlcbzo+GNBTQ0G708ueGjBU3Ly58/NDkCdvffe3XyMtyfuRjzvv3XiZhPOfvUy/TbTH2+Jro+5ht37qb89LevP/p4v7kvY/VBvKr6KOyeJrqobQYeT1UZrPtVx5+ZmqrqJoVt7jO62m1lZT0tOQp/3B6KH3jrbtJ5fxSa2dxuc6LIJ0H8iLRBvIi0QbyItEG8iLRBvIi0QbyItEG8haymuyxy9le1T0WT47VYMKye5bOkp1j8u/L+o4VTDnL1+yO0yR5dJm7XE3G62/yzGmxca7wgbzDnF1P55U/QX8CeYuZEfukLU2ymhyIa8vDMftnkukO1W/26JL9EslL8avEvynuSJu5PCRqi8KLfVJxTr4mpenvyvK7M6MWRBXIWwwfJBdPmx76tbz0EbSH2kKWhwn1k5k/3z2Tl3xEFd/kmbEBmRWVhad7/HeONJ1ezA4qivQpkHcjU3rU6VC32Od/jOnfZTryiUvi5eLJl332N5vetMs1z+Sl2J+Qf3tU4DUj71tg97hzcpIyZww3XwygzGSmqvimKCYGdqJ2Xl469HJ5BzHwQt7NzNmfYvGXf0bl2GPX5SWVd5/cR3wrPwjyyJGX/Msx8r55ln6LjqzrSQrzc86nBGN5KR96LW92jT0w++6cTYDJ19z6QQy8kHcz9G80nTX8H3WSDbNclNwlm1+SS2kXvXn9vCknb46R95Ws/BZzO5uk5OU9kJdyAq2Ql6nNC4/lo9EnbGTgneZmGX0N5N0MmTfwP+P0Cf0Oty4VSqVr8ejwlj3Prxh5c4y8r2Tlt2it9dKGcuTdJu9rPvIu9nl12YrZAfmFmPO/CT0O5N3M/NEf6Z/x5eFOQUCVvDk7auUV9y3Ju3j6h/XShnLOW5CX/hIclOe8fNYgW7H8/pLOUIyeNcYUyLuZ5esv9M84G7fmO8ppgxQw94dZKW9+2rCTe5jctwj41+uljew5Wn61oTzyigW9/GoDWzuTc5gpe5IHeQeY6Z+xJ+504N3fYc+08v9y8q4mRHBhZeUTNsHI+67ZPfGKyCxZv5zAfZuK9d3scvMJm3Kddy+7y+LZZYppwzAj/gRPyYz3N2yZobxUdrxe/hIjqnzexPWU/zaWynaO0wLLrGVP4USEn1PxLXEpLCyMpLlX2MQ0l8692eSETypmeMKGOE/9CyKF14W3pfkLg3EH8vqOxpJs9Tstiun/RKEYyOs37EWLumiOqNojdF8CeZFoA3mRaAN5kWgDeZFoA3mRaAN5kWgDeZFoA3mRaAN5EZspnH9UfOVb9Tp41elKy8NEvHiTXRN4/lEgL2IzduRlp5DuFa7N+dmCc3nSIA3kRWyG2kgGy10xSv6avfWNnpQ6zm4Vd2RfruXNv7mO3cxdl9emO+xd1uJCBPIiNkNlmx6ItwjRs5PINXFaYHHk5XcS8q4mdG4wz07Go+9I5u/UyF3DtAFxG2IjG3wz34Rs5MaCvOJOXN755luP2e4pfP+fR5AX6ShC0tXngrxTumcF1068wV7cqTDyroORF/EQ1cgrTu+vHnlpyJx3PW0oz3khL+I8xTkvl5ddPDneMufdDD23Sa42yGuQF3Gc9WqDtPYp3TczefhmvJpsW23YeBi2uktZrPMiXaXhJmnt9lSDvIjNQF4E0QnkRaIN5EWiDeRFog3kRaIN5EWiDeRFos3/A7vMA7movfMmAAAAAElFTkSuQmCC;" vertex="1" parent="1">
          <mxGeometry y="40" width="404.98" height="250" as="geometry" />
        </mxCell>
        <mxCell id="N9teQNvzdhTx7NpvY3XJ-5" value="" style="shape=image;imageAspect=0;aspect=fixed;verticalLabelPosition=bottom;verticalAlign=top;image=data:image/png,iVBORw0KGgoAAAANSUhEUgAAArwAAAGwCAMAAAB8TkaXAAABIFBMVEUAAAAAADoAAGYAAP8AOjoAOmYAOpAAZrYzMzM6AAA6ADo6AGY6OgA6Ojo6OmY6OpA6ZrY6kJA6kLY6kNtNTU1NTW5NTY5NbqtNjshmAABmADpmAGZmOgBmOpBmZgBmZmZmkJBmkNtmtttmtv9uTU1uTW5uTY5ubqtuq8huq+SOTU2OTW6OTY6ObquOyP+QOgCQOjqQOmaQZgCQtmaQtpCQttuQ27aQ2/+rbk2rbm6rbo6rjk2ryKur5P+2ZgC2Zjq2kDq2tma2tpC225C22/+2/7a2/9u2///Ijk3I///bkDrbtmbb25Db/7bb/9vb///kq27k///r6+vy8vL/AAD/tmb/yI7/25D/27b/29v/5Kv//7b//8j//9v//+T///9RdDb1AAAACXBIWXMAAA7DAAAOwwHHb6hkAAAbSElEQVR4nO2dC3vbOHpGaaeJ46TdtLVycSazvWgmaS610jZdO9O1dttp17baru1pZLWWZf7/f1FcKVIERRAECIB83+dJJMs6+mDwGIYgEUpSBIk0ie8GIIhpIC8SbSAvEm0gLxJtIC8SbSAvEm0gLxJtIC8SbZzIO01oDsi1/32TJL/697TiGoK0iQt5VxMp7/KQXtk9U19DkFZxIe9ifyyuzZK/vFz9nmqsuoYgrWIs72ry6N/+NNn5GzmU5kbT+c5xdp9L/r/qmo3mI0NOC3m5seOyvLPdf9pPHh5Trffo19PdM9W19o1Hhp028u5dkjnAXvlbU6n1Yp9NDmY7x6prppURhKeFvPzZV1ne1WTnn9P0P5NHl5AXcZk2c142d90rTxt4pmplIS9iK+7kJXouD5mobKZbvtam2QhiRd7NiLGV6InVBsRlHMhL5rx/m65+T5/KTema7u/omq7qGoK0igN50zmbROwc4xU2xGlcyJsu3iTJs+x9DA8rryFIm+BdZUi0gbxItIG8SLSBvEi0gbxItIG8SLSBvEi0gbxItIG8SLSBvEi0MZb3F1XUt2rGHxxru4cKQ94wSgM2gCFvGKUBG8CQN4zSgA1gyBtGacAGMOQNozRgAxjyhlEasAEMecMoDdgAhrxhlAZsAEPeMEoDNoAhbxilARvAkDeM0oANYMgbRmnABjDkDaN03+EkSWpg1T1qKkPeMEr3HGZ7J22FlfeoqWxbXtOH8RJljxgHcHUSvTSsLI8j5G1yLCq7E7A6GHmtR9kjxgG8JVHMee1Y1VFqurNhAHcNy+O4Vd7btxfs8u7D6OV1dqEUwJloLmK/OwF3CcvjuE3em9ELJu/9yVF69UpeqAVwqJr92O/O3sLfvn3zUbmi7C/a8p4//y0fee8+XdBBWFyoBXAqm+2YdGd1+gx/+6bWyHHlqrK/NJ823L67Tu8+nooLcsNjEsd+IUHkm8fUt05H3puXzFpxIb63+QsRUwzGgi3pM9zDkVchgEPV7MegO7ek13CFRMHPeTN5MefdGsBdw/I46sh7f/Kerza8x2pDRXcOGH7w4EEztjFQqiyPY6289B/Weeu6c7jwgwcNZWwMlCvL44hX2GSPtOrO4cIPjNKusjyOkLd4LAy7c7hwn0be/1GnrW52o+yRVt05YDjUOW8DAeTNkBewc1geR8hrpTsBdwnL4wh5rXQn4C5heRwhr5XuBNwlLI8j5LXSnYC7hOVxhLxWuhNwl7A8jpDXSncC7hKWx7FbeRf7Y/r/0zP5dXZtnXmSJI8uld+yFfvdCbhLWB5Hd/ISBxXy7p6plc0yo/eYPrqEvICrYHkcncnLzscvyfv0X/e4vIv9JBmTaz8/u0xXn4+Xh8kuk3X5+pj8v5qMIS/gKlgeR/vylvdDyct7NqXKnlFHycXi6R8+kyvPLqcH6WyP3mNOZgzyrqZNa9p238cCcENYHseuR96z5fdyRrD8jsh7NiPaHlCXyZfkxvne+q6mTWvadt/HAnBDWB7Hjue8xMjZAfNympCJAh18n/2RzRqSZIdOGMgovL6rq9jvTsBdwvI4drzaQIxcff5Cxt/DMZ82nJEvn13yUZcGc17AtbA8jt3Ly5Yc2HO2J8dsJE4OyDh8IGe7WG0AXAfL4+hBXubnLEkevhkLh8mAe8hnDSnWeaOHa3fOSxvvrrdRWR5HvMIme8Q4gAup37M0bbyv6UZleRwhr+wR4wAuRHM/achrmCbHQq87AWfByOs2yh4xDuBiMOd1GmWPGAdw17A8jpDXSnf2CK7eJsx1Za3qkLdJd9amX/CWDRodV9arDnkbdGd9+gV3vw9vKbXNlscR8m45kHrpF1yvj6vKetUhb4PurE/PYB13Mef1l0bdWRvAXcPyOEJeK90JuEtYHkfIa6U7BwSzffIM4PX+epC3TZQ90qo7hwPzHUqbw7mdTWOVl54ysVvxXkf+5nT5VsjcVRab75RU9kir7hwObLaZdGFPaf/yVmTtK3neWJKXnkCRzuQ5luUU1cx/1cV71BGNMAk75LbF2cjLVuw25WXqsbMt2anui2f/SE+Ap6Mq/erpf5BbfxZnw39hX/16zM9qs3t2kPLXudVYMCC413Pe8isma3lXEzHq8lPdF/vs7B96Bhv9Skwb+Nnw/8W+mpM7HKS2z4hX9kir7gTcJSyPY7cjLxtkd45Tcao7OwuIb+KQ5ua87Gx4fnX5/eXv6DftnhFvvzsBdwnL4+juCZtqzsuyeCJPdRfy0u1zdo7X8rKz4eW5xb/5no65ds+It9+dgLuE5XHsdrWBD6DTsTjVXcqbsnlBJi87G16sNsz+is4aMOcFnIPlcexWXrbaQEXkp7oLeemENi8vOxteXGXnFqeWVxvsdyfgLmF5HD2s8+5kp7rLkXcqVhvOVpPdn4Wx/Kuz1T8IWbHOC1jC8jiG/grb4s+N0erY707AXcLyOAYu70xuRWI19rsTcJewPI6By+sm9rsTcJewPI6Q10p3Au4SlscR8lrpTsBdwvI4Ql4r3Qm4S1geR8hrpTsBdwnL4wh5rXQn4C5heRwhr5XuHDass/NY7j6Qt02UPdKqOwcN6+z5mL8P5G0TZY+06s5Bw0135IW8bbL9WJh056BhjLxdRtkjrbpz2DDmvB1G2SOtuhNwl7A8jp3Ku5qwvx4VZw+bnhZPP8aYncdZldVk45v2uxNwl7A8ju7kffDggWLkrX4/rvFp8fzD3Z5Uv/0M8m6BtfbVc1I5lwaN6ERedp5+hbyLX73hbzon/7LPezc+LZ6Bq88ZyB9Y8uTGh2/G4mEg7yast6Opi8q5NGmEW3nL+6SU5d0fr8+ikJ/3bnxaPH9IonHh3CLBsxuTsXgYyLsJu9siumkaNNudvDoj79NsgFx/3rvxafF8zss9J3eX8gqe3EimDeJhIO8m3MQbu5VzCU7ebXPevLzZ573zb5ucFs+mDfzE4tXnDXn5J8yPxcNA3hJs5G7f57wVS2UlebPPezc+LZ7fi4NVI694GMjbC9i7vPQPOT2fPfu8d+PT4rNnehwUD5ybU5M5r3gYyNsUXu8wZlZZxccvL/3c97/47iz3ee+mp8Vn67xi4YI/sORXE7baMMVqgwmc25jUqLKSj1ZemzE+LV7ZI626s69wq914i7vyWmy2PI4Ry2t+WryyR1p1Z19hjLyuRl7jKHukVXf2FsacF/ICtgnL4wh5rXQn4C5heRwhr5XuBNwlLI+jbXmjiP3uBNwlLI/jFnnvPoxeXtMrVyOaI3b54kItgFPZbMd+dwLuEpbHsVre+xOi6yv51Q3x+PyoWgA3ljmK/e4E3CUsj2O1vHefLtLbt2Kgvft4mt5/Pa0WwJVnTmK/OwF3CcvjWC3v7btr5iwLHYLJNIJOHkgekzj2C0FqUy0vnShIednl7Y/50XfzFyKm2B8LAHcJy+OoN/Le8GduJNm8d/MxY4r97gTcJSyPo96c9/y9vLVKXkvN8gPH2u6hwvXy3p+8l6sNfLJAh9/7nyqWyiw1yw8ca7uHCtfLK9Z56eArZg9Xo9HzbMHBTbP8wLG2e6iwhrzb46ZZfuBY2z1UGPKGURqwAQx5wygdJayxsd62u0Bem3Cs7fYEa2xpuvUukNcmHGu7fcqrv5e0xcq/QN6QSscIY+QNCY613ZjzQt5o2z1UGPKGUbpTuLAlmPdmm++SBnnDKN0lXNyM0XezW+xPqZR3xp8lHkDeXsLd77lbG7OfuSzv8lBaO0s09qKx0ZuhwLG2GyOvdPe73Ec+FL6AvH2Bv2HOC3kBY7UhGDjWdg8VVsjLdnfOPtYE8g4OrthUr3HlusdxIC/9+ByaadUH+UHefsNV25k2rVz7OA7kne5tXoG8g4KtbCRdtaG01WaX5GWTBpa51tDrpll+4FjbjZEX8kbbbsx5RVYT+cLals//hbyAA4BL8rLPlSpaDHkBBwmX5U2n7EXh5aHeWpmbZvmBY233UGGFvPwDzXQ/YsdNs/zAsbZ7qLBK3kZx0yw/cKztHioMecMoDdgALsmLd5UBjgUuj7zLw0Ss9OL9vICDhsvykkxxJgXgCGClvE3ipll+4FjbPVQY8oZRGrABDHnDKA3YAIa8YZQGbABD3jBKAzaAVfKuJmOFpZB30LB607FU4z5tK1fDKnnXb+lFEB62dmrhPk5S3DFH8+RLGje/U37gWNvdAay7F2+TodfRyMvbgTMpAMtUiJlq3Kdl5S2wcuRtEjfN8gPH2m7MeSFvtO0eKqyWd5YkY82Jr5tm+YFjbfdQYaW800f/fTheTbBvQ9Sw5gZ2HpotWuZqqYyuluHU96hh3a1Du2+2bBnktQnH2u5qecONjZ9ZJW86o9OG5SHezxszLBXpvnJd3MqbzrXfiw55g4X13O3bnLdRKh+5VbP8wLG2e6gw5A2jtBeYbSZmtXKDbc5cyCtfG8bLw72H+TaONis32WDS2RM2qq3me8vcNMsPHGu728hrP66bvYZV8gptsVTWc7iXIy/kHQjcuzkvjZg2YJ0XcNCwUl6+zqt3OoWbZvmBY233UGG1vA3ipll+4FjbPVQY8oZRGrABrJSX7S6NdV7AgcMqeTXfyQt5AYcnb6NT3900yw8ca7uHCqtHXsgLOAJYJa/myxOQF3B48mLfBsBRwMqRt0ncNMsPHGu7hwpD3jBKAzaAVfJi2gA4Crh65F2+1voMTDfN8gPH2u6hwtXypnN86jvgoOFt8mLaMDxYc688ebdg5Z1i5B0crLlLaXa38OQVT9j0PvfdTbP8wLG227K8DbaRDk/eRnHTLD9wrO3GyAt5o2035rz5zPLbPd19GL28ZteuRqPRi4vcDZAXsEdYKW/hBMz7k6P06hW7en60cQPk9QUXNiILvtnqbdMcPWHLn/p+9+kivX17Qa39elq8AfL6gotbQIbe7IoNKzuQ9/bddXr38ZTPH0ajo9wNj0mUE2HEcbrfT7d1HPZG9bTh5qV09fbHUzr6rm+gqfy1aPU75QeOp91MBy+VTeBia+1VVspbeMK2HmhZzo+KN1Q+cqtm+YEjavc3zHl1lsqKU1wiL+a8gMOAS/KKD6RY5/7kvVhcoPOF+58u1jdAXsA+4Xp5xbIuHWuvRqPnpynWeaOC6/a+a1W50cZ6Viurpw0zbC7dJ7h219E2lZttaWqzct1SmV7cNMsPHGu7a+V1GifN1oJV8jaKm2b5gWNtN0beXLBXWY/gQc15sVcZ4EhglbyY8wKOAlaPvJAXcASwSl7sVQY4ClglLzYdARwFrBx5m8RNs/zAsbZ7qDDkDaM0YANYLW/hHDbICzhMWCkvPkQQcAywSl58fCvgKGDIG0ZpwAawSl5MGwBHASvlxRM2wDHAankbxE2z/MCxtnuoMOQNo3RncGkzsq1w3dZlwcnLnq+tJlq780LeyODyNpDb4NpNI0OTd7HPJ7tTvXfnuGmWHzjWdjeVt1lCaLYaLss73du8Ann7A/d75F2/Ex3rvH2Eez3nhbyAY4FL8q4mcn13hg9UARw0XJKXv7xWsBjyOofVO9F1UdkRrPMDuVgqm7KPAVoe6q2VuWmWH9hb6Yo9QDuo7AjW+oGcvEjBtm3Q+yAryGsF7n6r5y7isMPwCls4pbWOtZPKvRt5IW/ncCt3Q+xunR8I8tqEY233UGHIG0bpFnCr/cKaVS6VgrzBwFG2u91OjY0ql0tB3mDgKNvtfgPeLdvxQt5g4CjbjZHXXF7Ed4hQPSzVJBh5/ZYGbABD3jBKAzaAIW8YpQEbwJA3jNKADWDIG0ZpwAYw5A2jNGADGPKGURqwAQx5wygN2ACGvGGUBmwAQ94wSgM2gCFvGKUBG8CQN4zSgA1gyBtGacAGMOQNozRgAxjyhlEasAEMecMo3Rau2xFve2VjGvIGA8fa7rR+L9Ktlc1pyBsMHGu7U5M9o5vsIe2q2S1hyBtGaYy8BjDkDaM05rwGMOQNozRgAxjytqTXm3JF+kPbgptvtwZ5bcIGdG47xEh/aEuwwUaXkNcmbCovIuK6tzdgyNuOzh2zSH9ojLy2m+UHxpy3BdzYXchrFY613UOFIW8YpQEbwJA3jNJVsNYOkD2rrA1D3jBKV8B6+5f2q7I+DHnDKL1NIX/x8jPrw5A3jNLBjX+Q17hZfuAA261jUN8qa8OQN4zSgA1gyBtGacAGMOQNozRgA1hD3rsPo5fX7NrtD6PRUZpejUajFxeQF3Dw8t6fHKVXr5jFH0/T2x9P0/MjjLyAA4Dr5b37dJHevqUD7Q1V+Pzo/usp5AUcAFwv7+27azbmCpU/npJpBJs9pOljkkoOQTpKtbw3L3Py3p+8ZzOH9ejr5nfKDxxru4cK18ubH3nvPrwXt2bzXjfN8gPH2u6hwvXyrue86e0P2VM1yAvYO1wvL50p8NUG4S6dR9z/hKUywL7hennFOi8ZfOn6Ln2qRi6fZwsObprlB4613UOFNeTdHjfN8gPH2u6hwpA3jNKADWDIG0bpAtx06zDNyuqHDeRnNoEhbxil83DjTRv1Klc8bBg/sxEMecMoXZLXURw2u3sY8oZRGiOvAQx5wyiNOa8BDHnDKA3YAO67vM120Aqn3XHAzfcns1V5CPI23LswmHbHARvsDGmp8nDkRVzG44Eegrx+Sg8Ahrxu4Wa9G06744BbuQt5rcKxtnuoMOQNozRgAxjy+im9uROYzx7T2pXMSeWWMOT1Urq0B6PHHtPbD9JF5bYw5PVSuvutdmvSwc9sH4a8XkqXhMHIawBDXj+lN33BnNcAhrxhlAZsAEPeMEoDNoAhbxilARvAkDeM0oANYMgbRmnABjDkDaM0YAMY8oZRGrABDHnDKA3YAIa8YZQGbABD3jBKAzaAIW8YpQEbwJA3jNKADWDIG0ZpwAYw5A2jNGADGPI6KN10rzF7lQ1KR3qsrMiLlMK2YxxcaY/ByGuvtMv9dXXi42f2AkNe+6UNDLI4YYG8kLcN3NxdzHlNYMgbRmnABjDkDaM0YAPYqbxm+7BB3qDhwkHtr7yGO2BC3pDh4kHtubxID2PPv1YwRt4wSkcDD0VezHn7CH8bxpy3RbP8wLG2e6gw5LVFt9jxq2VlPbiqfZEeK8hrkW6z12K7ynpwZfsiPVaQ1yLd/Za6BrH8M/uGIa8lulIO55Ux8kLetnQrdzHnNYEhbxilARvAkDeM0oANYMgbRmnABjDkDaM0YAMY8oZRGrABDHnDKA3YAIa8YZQGbABD3jBKAzaAIW8YpQEbwJA3jNKADWDIG0ZpwAYw5A2jNGADGPKGURqwAdxaXmUeW320OCoP8ocOozLkjbj00CtD3ohLD73y8HYkRnoTyItEG8iLRBvIi0QbyItEG1vyXo1GoxcX6d2H0ctrSw+pmfuT0fPT1Edl+jOPRkc+St/+QHt7SJVv366ryuK25D0/ov/fnxylV68sPaR+5ZuX1z4q0/gpfffxNL3yU/nDkZfKN/RXRlTNiluS9/7rKb24+3TBf0W6Cy3ppzIrSyzyUPr23TUt66vyx9OuK58//y2pJqpmxS3JSwZy+gdU/Gh2HlMvt+/+hU4bPFSmoQOAh9Ji5PXS3axk95WprZvFLcl7++MpHX3JH9HOe/MH9jvjoXLKJUp9lOazPg+V2bThuYcDTeUVVbPiNlcbzo+GNBTQ0G708ueGjBU3Ly58/NDkCdvffe3XyMtyfuRjzvv3XiZhPOfvUy/TbTH2+Jro+5ht37qb89LevP/p4v7kvY/VBvKr6KOyeJrqobQYeT1UZrPtVx5+ZmqrqJoVt7jO62m1lZT0tOQp/3B6KH3jrbtJ5fxSa2dxuc6LIJ0H8iLRBvIi0QbyItEG8iLRBvIi0QbyItEG8haymuyxy9le1T0WT47VYMKye5bOkp1j8u/L+o4VTDnL1+yO0yR5dJm7XE3G62/yzGmxca7wgbzDnF1P55U/QX8CeYuZEfukLU2ymhyIa8vDMftnkukO1W/26JL9EslL8avEvynuSJu5PCRqi8KLfVJxTr4mpenvyvK7M6MWRBXIWwwfJBdPmx76tbz0EbSH2kKWhwn1k5k/3z2Tl3xEFd/kmbEBmRWVhad7/HeONJ1ezA4qivQpkHcjU3rU6VC32Od/jOnfZTryiUvi5eLJl332N5vetMs1z+Sl2J+Qf3tU4DUj71tg97hzcpIyZww3XwygzGSmqvimKCYGdqJ2Xl469HJ5BzHwQt7NzNmfYvGXf0bl2GPX5SWVd5/cR3wrPwjyyJGX/Msx8r55ln6LjqzrSQrzc86nBGN5KR96LW92jT0w++6cTYDJ19z6QQy8kHcz9G80nTX8H3WSDbNclNwlm1+SS2kXvXn9vCknb46R95Ws/BZzO5uk5OU9kJdyAq2Ql6nNC4/lo9EnbGTgneZmGX0N5N0MmTfwP+P0Cf0Oty4VSqVr8ejwlj3Prxh5c4y8r2Tlt2it9dKGcuTdJu9rPvIu9nl12YrZAfmFmPO/CT0O5N3M/NEf6Z/x5eFOQUCVvDk7auUV9y3Ju3j6h/XShnLOW5CX/hIclOe8fNYgW7H8/pLOUIyeNcYUyLuZ5esv9M84G7fmO8ppgxQw94dZKW9+2rCTe5jctwj41+uljew5Wn61oTzyigW9/GoDWzuTc5gpe5IHeQeY6Z+xJ+504N3fYc+08v9y8q4mRHBhZeUTNsHI+67ZPfGKyCxZv5zAfZuK9d3scvMJm3Kddy+7y+LZZYppwzAj/gRPyYz3N2yZobxUdrxe/hIjqnzexPWU/zaWynaO0wLLrGVP4USEn1PxLXEpLCyMpLlX2MQ0l8692eSETypmeMKGOE/9CyKF14W3pfkLg3EH8vqOxpJs9Tstiun/RKEYyOs37EWLumiOqNojdF8CeZFoA3mRaAN5kWgDeZFoA3mRaAN5kWgDeZFoA3mRaAN5EZspnH9UfOVb9Tp41elKy8NEvHiTXRN4/lEgL2IzduRlp5DuFa7N+dmCc3nSIA3kRWyG2kgGy10xSv6avfWNnpQ6zm4Vd2RfruXNv7mO3cxdl9emO+xd1uJCBPIiNkNlmx6ItwjRs5PINXFaYHHk5XcS8q4mdG4wz07Go+9I5u/UyF3DtAFxG2IjG3wz34Rs5MaCvOJOXN755luP2e4pfP+fR5AX6ShC0tXngrxTumcF1068wV7cqTDyroORF/EQ1cgrTu+vHnlpyJx3PW0oz3khL+I8xTkvl5ddPDneMufdDD23Sa42yGuQF3Gc9WqDtPYp3TczefhmvJpsW23YeBi2uktZrPMiXaXhJmnt9lSDvIjNQF4E0QnkRaIN5EWiDeRFog3kRaIN5EWiDeRFos3/A7vMA7movfMmAAAAAElFTkSuQmCC;" vertex="1" parent="1">
          <mxGeometry x="404.98" y="40" width="404.98" height="250" as="geometry" />
        </mxCell>
        <mxCell id="N9teQNvzdhTx7NpvY3XJ-6" value="" style="shape=image;imageAspect=0;aspect=fixed;verticalLabelPosition=bottom;verticalAlign=top;image=data:image/png,iVBORw0KGgoAAAANSUhEUgAAArwAAAGwCAMAAAB8TkaXAAABHVBMVEUAAAAAADoAAGYAAP8AOjoAOmYAOpAAZrYzMzM6AAA6ADo6AGY6OgA6Ojo6OmY6OpA6ZrY6kJA6kLY6kNtNTU1NTW5NTY5NbqtNjshmAABmADpmAGZmOgBmOpBmZgBmZmZmkJBmkNtmtttmtv9uTU1uTW5uTY5ubqtuq8huq+SOTU2OTW6OTY6OyP+QOgCQOjqQOmaQZgCQtmaQtpCQttuQ27aQ29uQ2/+rbk2rbm6rbo6ryKur5P+2ZgC2Zjq2kDq2tma2tpC225C22/+2/7a2/9u2///Ijk3I///bkDrbtmbb25Db/7bb/9vb///kq27k///r6+vy8vL/AAD/tmb/yI7/25D/27b/29v/5Kv//7b//8j//9v//+T////QPYpjAAAACXBIWXMAAA7DAAAOwwHHb6hkAAAbk0lEQVR4nO2dC3vbOHaG6aSJ46SdtLVycSazvWgmaS522qZbe6bWbjvtOlbbtZ1GVmtZ5v//GcVVIilQJI4AAqC+73kS0RL16hh8DUGQCGU5giSaLHQBCEIN5EWSDeRFkg3kRZIN5EWSDeRFkg3kRZIN5EWSjRd5RxnPPtv639dZ9t2/541bCGIfH/LOj7S8swO+ce+saQtBCPEh73RvqLbG2V9ezH/PNV6/hSCEkOWdHz38tz/Ndv5Gd6CFPnSyc7zY50L+v37LxS+CbF82kFcaO1yVd3zvH/eyB8dc613+8+je2fqtTX8JZDuziby7F+yZf3f1ppHWeronhgTjneP1W9QakO3OBvLK11yr8s6Pdv4pz/8ze3gBeRGf2WTMK0asu6vDBplRk7KQF9ks/uRlUs4OhJ5ifLtui14+ss1xIG81qkdlUmK2AfEZD/KyMe/f5vPf85dyIz6T+zs+k7t+C0EI8SBvPhGDiJ1jvMOGeI0PefPp6yx7uvj0woMWWwhiH3yqDEk2kBdJNpAXSTaQF0k2kBdJNpAXSTaQF0k2kBdJNpAXSTaQF0k2ZHm/EkK6U1hygiX3nwx5A4NBppMhb2AwyHQy5A0MBplOhryBwSDTyZA3MBhkOhnyBgaDTCdD3sBgkOlkyBsYDDKdDHkDg0GmkyFvYDDIdDLkDQwGmU6GvIHBINPJkDcweDvIWZa1ug7yJgXeCrJYOqnFdYHlpWKCxKadbBrVKttAzuqyGVkfR8jb0E42jWqVbSCj53Ufm3ayaVSrbAU5jTGvG6s6ik072TSqVUAmk/VxXCvvzZtzcXn7fvDianFhFMCbaD7iq1GtAjKZrI/jOnmvB8+FvHcnh/nlS31hFsCjau7jq1GtkhD527dvnsiLVMiLRzTvrLJG3i/P/kX2vLcfz3knrC7MAniVzXXojeow6ZC/fdMudVXz8hHNO6u0GTbcvL3Kbz+cqgt2xSMWz34h8eRbmDQX1kbe6xfCWnWhbqv5Y0gi5B7BZdIh96vnNQjgUTX3ITeqyyRE/pbemHchL8a8PgIymayPYxt5707eydmGd5htcJdekO/fv++Ca4nRx7FRXv4P87we0gfy/ftO7LXF6OOId9ga2sliX7v0gXzfYWzKUIG8dofLXfpA7lnP+z/mbKqb29i0k8W+dukFOeIxr4UA+mrIC7J3sj6OkNdho1oFZDJZH0fI67BRrQIymayPI+R12KhWAZlM1scR8jpsVKuATCbr4wh5HTaqVUAmk/VxhLwOG9UqIJPJ+jh2K+90b8j/f3Kmf15sLTPJsuzhhfEmV/HVqFYBmUzWx9GfvMxBg7z3zszKLjLme4weXkBekGt3VvEmrzg9f0XeJ/+6K+Wd7mXZkG39+vQin386nh1k94Sss1fH7P/50RDygly7s4p7eVeXRynKezbiyp5xR9nF9MkfPrGNpxej/Xy8y/eYsBGD3pVamm3tzhrVKiCTyfo4dt3zns1+0COC2fdM3rMx03afu8x+ZFdOdpe7Ukuzrd1Zo1oFZDJZH8eOx7zMyPG+8HKUsYEC73yf/lGMGrJshw8YWC+83NVXfDWqVUAmk/Vx7Hi2gRk5//SZ9b8HQzlsOGM/Pr2QvS4PxrwgN++s0r28YspBvGZ7fCx64myf9cP7erSL2QaQG3dWCSCv8HOcZQ9eD5XDrMM9kKOGHPO8CZMNS+gZV9WzJ1d2VsE7bA4b1Sr9IxsWLzWvZ2pNru6sAnkdNqpV+kduvZK0Nbm6swrkddioVukfGT1vF7FpJ5tGtUoPyRjzdhCbdrJpVKuATCbr4wh5HTaqVWIkr18izG/NTY9d3FkF8jY1qq9ESG5YnNFrzY2PXdxZBfI2tJPFvnaJkNz9GryVtP0FVSBvQztZ7GuXCMmNAqHnDR+bRrXY1y4xkpv8wZg3fKwa1VdAJpP1cYS8DhvVKiCTyfo4Ql6HjWqVpMhqJTyH5MraepC3bWzayaZRrZISWa9B6o5cXdU0BXn5KRP3aj7rKD+crj8KWdgUcflJSZt2smlUq6REdrmItHk96W7lrcnSV/bqcUVefgJFPtbnWK6mrGbxpy4+o47URagWH9Fbzyvm7aryCvXE2ZbiVPfp03/gJ8DzXpX/9OQ/2LW/qrPhP4uffjOUZ7W5PTvI5o/cpkewSlLkbRnzrr5vspR3fqR6XXmq+3RPnP3Dz2DjP6lhgzwb/r/ETxO2w37u+ox4m3ayaVSrgEwm6+PYbc8rOtmd41yd6i7OApKLOOSFMa84G15uzn64+B2/0e0Z8b4a1Sogk8n6OPp7wWYa84pMH+tT3ZW8fPmcneOlvOJseH1u8W9/4H2u2zPifTWqVUAmk/Vx7Ha2QXago6E61V3Lm4txwUJecTa8mm0Y/xUfNWDMC3JxZ5Vu5RWzDVxEeaq7kpcPaIvyirPh1aY4tzh3PNvgq1GtAjKZrI9jgHnencWp7rrnHanZhrP50b1flbHyp7P53ytZMc8L8mJnldjfYZv+Ofmu9fHVqFYBmUzWxzFyecd6KRKn8dWoVgGZTNbHMXJ5/cRXo1oFZDJZH0fI67BRrQIymayPI+R12KhWAZlM1scR8jpsVKuATCbr4wh5HTaqVUAmk/VxhLwOG9UqIJPJ+jhCXoeNapW0yRssS9ZAbrOzCuR12KhWSZq8yYKQ68mtdlaBvA4b1SpJkzdZinc9udXOKpDXYaNaJWkyet5g8dWoVkmbjDFvqPhqVKuATCbr49ipvPMj8dxSc/Yw9bR4/jXG4jzOusyPKjf6alSrgEwm6+PoT9779+8bet76z+OST4uXX+72uP7jZ5C3FIsV7SzJVimXEZe84sT8Gnmn372WHzpn/xbf904+LV7ccf5pcUcJ1vdnVz54PVQYyNtiHVMy2SqVMiKRd3VhlFV594bLsyj0972TT4uXSKZx6dwidX9xZTZUGMgbwQrShRBbw5+8bXreJ4sOcvl97+TT4uWYV3rOdtfyqvuzK9mwQWEgL3reNvKuG/MW5V1837u8mXJavBg2yBOL558q8spvmB8qDOT9ijFvG3nNU2Ur8i6+7518WrzcS96xrudVGMjbC3JwefkTOT+fffF97+TT4hev9OQdFbgwpmZjXoWBvGtTWT/MIbkRnpa8/Hvf/+L7s8L3vVNPi1/M86qJCwnW958fidmGEWYbGlNddtQduRmehLwuQz4t3qadbBrVKvGRPa3CW4ijmvVxTFhe+mnxNu1k06hWiY+MnrfDnpccm3ayaVSrREjGmBfyguyZrI8j5HXYqFYBmUzWxxHyOmxUq4BMJuvj6FreJOKrUa0CMpmsj+MaeW/fD15c8Y3LAc+huHx+bhbAq2yu46tRrQIymayPY728dydM15f6p2vm8ZfDegH8WOYpvhrVKiCTyfo41st7+/E8v3mjOtrbD6f53c+n9QL48sxLfDWqVUAmk/VxrJf35u2VcFaEd8FsGMEHDyyPWDz7hSCNqZeXDxS0vOLy5qdi71vzx5BEfPUIVgGZTNbHsV3Pey1fubEsxr01vCTiq1GtAjKZrI9juzHvl3f62jp53VcYBznBkvtPbpb37uSdnm2QgwXe/d79UjNV5r7COMgJltx/crO8ap6Xd75q9HA5GDxbTDh4rzAOcoIl95/cQt718V5hHOQES+4/GfIGBoNMJ0PewOBEyOXV8/KVa1wF8qYEToNcWbc033Ql09pA3pTAaZBdryFdG8ibEjgNMnpeWoVxkBMsGWNeyOsZDDKdDHkDgz2SN1iMrCHkmhtLgrwpgf2RN1kGsiHUmptL2lzesXwtuQ95/YM9yxth3LXGqryzA23tOGuxFg2lWRM0IcGSm00hJ9aed7nWaPUHyJsY2Zu7GPN6CeTdJjLkDQwGmU42yCtWd158rQnk9QsOQ25cSo9M3vCRNpSXf30Oz6jui/wgb/Lk5kVMqeRNH2lDeUe71Q3Im2TJTfJ2Fyc1m3auyisGDSKTVl2vzYORKoyDnGDJW9jzQt5uwRjzUskGeedH+o21Nd//C3lBjoC8Iq/4XqmyxZA3yZL7T16VNx+JN4VnB+3myrxXGAc5wZL7TzbIK7/QrO1X7HivMA5ygiX3n2yS1yreK4yDnGDJ/SdD3sBgkOnkFXnxqbJuwSDTyas97+wgUzO9+DxvB2CQ6eRVeVlGOJOiMzDIdLJRXpt4rzAOcoIl958MeQODQaaTIW9gMMh0MuQNDAaZToa8gcEg08kmeedHQ4OlkLfv5NXVx+rWI4ukZpO8y4/0IlsUMT3acE2cKa+Y0/LkSx7vf15xkBMs2ZZssQZvJDWb5J0dyLJxJkUH4HjIq6qmKK9VvFcYBznBkrdzzAt5OwSDTCeb5R1n2bDlwNd7hXGQEyy5/2SjvKOH/30wnB9h3YYOwERym0X0wtZMW+bPxVQZny3Dqe9dgGnkVsuXBq2ZuMAq5E0JvIG88cdza5jkzcd82DA7wOd5OwCj57UlF3Y2yZtPWn8WHfKGIbcxYyvHvFYhFBidCSHBINPJkDcw2AdZrQ/Wec0broC2hlyzc1Ve/d4w3h7uBuyBrFdm7LrmTdeerCfX7WzqecVyZS0/W+a9wjjIKZXc8eq75WxYu6uPRGKqrAswet4W5LqdIW9YMMa8bcg1Oxvk1cMGzPN2AAaZTjbKK+d5251O4b3COMgJltx/sllei3ivMA5ygiX3nwx5A4NBppON8orVpTHP2wkYZDrZJG/LT/JCXpDDkk3yWp367r3COMgJltx/srnnhbydgUGmk03ytnx7AvKCHJZskhfrNnQIBplONva8NvFeYRzkBEvuPxnyBgaDTCeb5MWwoUMwyHRyfc87e9XqOzC9VxgHOcGS+0+ulzef4FvfOwCDTCevkxfDhg7AnZFNi+bVLaRnR3YZV/KO0PN2AO6KbFqutHYJUyuy07h6wdbue9+9VxgHOcGSDfK2XTzaiuw0mCpLCYyel06GvIHBGPPSyWZ5x8Xlnm7fD15cia3LwWDw/LxwBeQFOSDZKG/pBMy7k8P88qXY/HJYuQLyuiTTVvdqQ3adMtll3a4+z6umym4/nuc3b865tT+flq+AvC7JxHUVW5Cdp0R2WrdjeW/eXuW3H07l+GEwOCxc8YjFOBBGCOl++VyHCdpy9cOG6xfa1ZufTnnvu7yCx/ufVxxk9Ly1ZKd1O37BtuxoRb4clq/wXmEcZIx568ku63Y8VVYe4jJ5MeYFOQ7yirzqCymWuTt5pyYX+Hjh7pfz5RWQF+SQ5GZ51bQu72svB4NnpznmeUORLRey81izgyX1ashWO68MG8ZYXLpLsAXZdglRfzW7WMzUHFdTZe3ivcI4yDGU3P1K0WsTuDW+4rMNwcHoeUvZXF6sVdYdGGPeMtlqZ4O8WKusQzDIdLJJXox5OwSDTCebe17I2xkYZDrZJC/WKusQDDKdbJIXi450CAaZTjb2vDbxXmEc5ARL7j8Z8gYGg0wnm+UtncMGeX2CQaaTjfLiSwS7A4NMJ5vkxde3dggGmU6GvIHBINPJJnkxbOgQDDKdbJQXL9i6A4NMJ5vltYj3CuMgJ1hy/8mQNzB4c3LNgmPUdcjaJJLWMMgrXq/Nj1qtzgt5g5NrlnokrwDZJpG0xqq80z052B21+3SO9wrjIMdbcu3Cu9so72i3ugF5Yy4ZPW/p1He1hXneLsAY89LJkDcwGGQ6eUXe+ZGe3x3jC1U6AINMJ6/IK99eK1kMeW3BNkvPJdMYhV8qkppX5c1H4muAZgft5sq8VxgH2QpstehnKo1R/KUiqdkgr1y2od0XWUFeU7pf27mrUFrDKniHLTS4eJzdkq2ylT0v5N0UbOFuOo3xLYUxL+TtEgwynQx5w4K9Lfr11UHNtcVFcgAhb1Cwv+UWv25ec31xkRxAyBsU3P2qurbpsjVsyZA3KLjeDwdBz4t4DdMjdAn1ibq4QtDzBgKDTCdD3sBgkOlkyBsYDDKdDHkDg0GmkyFvYDDIdDLkDQwGmU6GvIHBINPJkDcwGGQ6GfIGBoNMJ0PewGCQ6WTIGxgMMp0MeQODQaaTIW9gMMh0MuQNDAaZToa8gcEg08mQNzDYQF6/RF77BfQSbGbImxR4lbx+cVKLpUsTbGbImxS4Rt71IZKdJRIy5A0MRs9LJ0PewGCMeelkyBsYDDKdDHmrMa8zFnXJLsmtllmLpGbIW0nNCo8xl+yS3G6By0hqhryVdL/mbXzpoJmdkCFvJTVHL+aSXZIhr9MKuyabD17UJbskt3E3lpohb2AwyHQy5A0MBplOhrwOwaQVH8M2Bm2RykgOIOR1B6atVxq0MYhLrEZyACGvO3D3Kz+7iZ/WoAXyBgLTTEDPSyZDXofgBEUglRzLAYS8gcEg08mQNzAYZDoZ8gYGg0wnt5D39v3gxZXYuvlxMDjM88vBYPD8HPKCHJjcLO/dyWF++VJY/OE0v/npNP9yiJ4X5AjIzfLefjzPb97wjvaaK/zl8O7nU8gLcgTkZnlv3l6JPlep/OGUDSPE6CHPH7HU3g9BOkq9vNcvCvLenbwTI4dl7+v9zysOcoIl95/cLG+x5719/05duxj3eq8wDnKCJfef3Czvcsyb3/y4eKkGeUEOTm6Wl48U5GyDcpePI+5+wVQZyKHJzfKqeV7W+fL5Xf5SjV0+W0w4eK8wDnKCJfef3ELe9fFeYRzkBEvuPxnyBgaDTCdDXn/gdquK5a33tE2CzQx5IwG3XM8xt1r50SYJNjPkjQTcYp1d+zV3PdecFhnyegOj5/VNhrz+wBjzeiZD3sBgkOnk1OWtLK0FeduQW61HRiJvnG2St7qoIeRtQW63EiSFvHm2Tl6EkI2aHfK6SPU4oOdtQYa8cciLMS+FvKm7sbRG6vJ2RU6w5P6TIW9gMMh0MuStxrx6V9Ql15NpS5G1IXsK5N0kNesmxlxyPZm4CGQLsq9A3k3S/fK4vuOgWauJ5ABC3kpqjnfMJdeTIe92yYsxbzuyp0DelMAg08mQNzAYZDoZ8gYGg0wnQ97AYJDpZMgbGAwynQx5A4NBppMhb2AwyHQy5A0MBplOhryBwSDTyZA3MBhkOhnyBgaDTCdD3sBgkOlkyBsYDDKdDHkDg0GmkyFvbUoLiNmA7VYeS6MxoiRvLG9vI5Zu7PSOCDHoeauxXF6XvNpuEo0RJxny1qXsoAUY8nZFhry1wZg3djLkDQwGmU6GvIHBINPJXuWtW9Atkt89CrAXsmz4tGomkH3KW7uUZiS/exRgH2TV8EnVTCF7lxcJlGgU80dGzxsYjJ6XTvYpL8a8ocjfMObdWF4nFcZBTrDk/pP7Ja+npbm+RnO4lmnxq0ZXs2tyr+T1tSji12gO1yJtftXYanZO7p+8W5RAzRwNuX/y+kFHcrgWgbxfeyYvxrwuyC0SCblf8mK2YavIkDcwGGQ6GfIGBoNMJ0PewGCQ6WTIGxgMMp0MeQODQaaTIW9gMMh0MuQNDAaZToa8gcEg08mQNzAYZDoZ8gYGg0wnQ97AYJDpZMgbGAwynbyxvHHlUegC7JNgybHVDHlDJcGSY6sZ8oZKgiXHVnNP5EW2MZAXSTaQF0k2kBdJNpAXSTapy3s54DnMb98PXlyFLqZlbn4cPD/Pkyo5zppTl5fn+sXV3clhfvkydCHtcvvhNL9Mq2Qm7WGENfdAXi7D7cfz/ObNeehSWuXm7RWvN6WSZc0fTiOruQfy8q5ANW7oUlpF9bwplazbN7Ka05dXNCYbOcTUqusjB46JlczGC89OI6s5fXl5gybV8978dJpfPz9PqWTxgu3vfkbP6zpf3rH/IhuMrY3qvlIqWSS+cXry8t79zDuCu5N3Mb0MXhvV86ZUshynv4ytmZOXVz2LxTUBuT7Xg8Gz07RK5jXzYuOqOXl5ke0N5EWSDeRFkg3kRZIN5EWSDeRFkg3kRZIN5C1lfrQrLse7dXtMHx+b75iJ3DvLx9nOMfv3ebljzX1WM3sldhxl2cOLwuX8aLi8UWbCH2xYeOB9vcNEbOeT2t+gP4G85YyZfdoWm8yP9tXW7GAo/lEy2uH6jR9eiD8ifan+lOSNakde5uyAqa0eeLrHHnHCfmYPzf9WZt+fkSpIKpC3HNlJTp/YHvqlvJzQuqstZXaQcT+F+ZN7Z/pS9qjqRpmx6JDFg+oHHu3KvzlWOr8Y79c8SJ8CeSsZ8aPOu7rpnnwy5s/LvOdTl8zL6ePPe+I5m191T2q+kJff7U/Yv10u8PI+et/SfXelc3qQMhH3kearDlSYLFRVN6oHUx07U7soL+96pbxb0fFC3mom4qlYPfOPuRy7Yltfcnn32D7qpmInKKN7XvavcB+9b/G+/Cbesy4HKcLPiRwSDPWlRi/lXWwJsLh1IgbA7Gdp/VZ0vJC3Gv4czUcN/8edFN2sFKVwKcaX7FLbxa9evm4qyFu4j95X31ffJNxeDFKK8u7rSz2ANsgr1JYPPNQ0/oKNdbyjwiijr4G81bBxg3wa5y/od6R1uVIqX4rHu7fF6/yanrdwH72vvq++iT/WcmrD2POuk/eV7Hmne/LRdRXjffYHMZHPCT0O5K1m8vCP/Gl8drBTEtAkb8GORnnVvivyTp/8YTm1YRzzluTlfwT7q2NeOWrQVcx+uOAjFNKrxpQCeauZvfrMn8ZFvzXZMQ4btICFJ2ajvMVhw04BU7iJ3fGvl1Mbi9doxdmG1Z5XTegVZxvE3Jkew4zEizzIu4UZ/Zl44c473r0d8Uqr+K8g7/yICa6srH3Bpu6j913ed1e9IzLOlm8nSN9Gan53cVl9wWac591d7DJ9epFj2LCdUU/BIzbi/a2YZlidKjteTn+pHlW/bpJ66n+VqbKd47x0X2GteAmnovwcqZvUpbKw1JMW3mFTw1w+9haDEzmoGOMFG+I9zW+IlN4XXhf7NwbTDuQNnRZTsvWftCin/wOFciBv2Ig3LZrSskdt3UP3JZAXSTaQF0k2kBdJNpAXSTaQF0k2kBdJNpAXSTaQF0k2kBdxmdL5R+V3vk3vg9edrjQ7yNSbN2prcUXxDRvIi7iMG3nFKaS7ha3lFeMM8iJ+wm1kvaT8vPH0yW/ER9/4SanDxbVqR/HjUt7ih+vE1dJ1tbW4Yvrda8iL+Am3bLSvPiLEz05iW+q0wHLPK3dS8s6P+KBgsjgZj38iWX5SQ23pK+af/hnDBsRTmI2i832ll79QyrIrS/KqnaS8k+pHj8XqKXL9H7mlrxjvY8yL+IqSdP6pJO+Ir1kh5VUfsFc7lXreZep6XnYBeRFfMfW86vT++p6Xh415l8OGujHveHm6Ng/kRVymPOaV8oqLx8drxrzV8HOb9GzDvpxt2C9MP+hAXsRllrMN2tonfN3M7MHr4fxo3WxDBSOmdfl9Mc+LdBXLRdI2W1MN8iIuA3kRpE0gL5JsIC+SbCAvkmwgL5JsIC+SbCAvkmz+Hx5EHQzfygTuAAAAAElFTkSuQmCC;" vertex="1" parent="1">
          <mxGeometry y="290" width="404.98" height="250" as="geometry" />
        </mxCell>
        <mxCell id="N9teQNvzdhTx7NpvY3XJ-8" value="" style="shape=image;imageAspect=0;aspect=fixed;verticalLabelPosition=bottom;verticalAlign=top;image=data:image/png,iVBORw0KGgoAAAANSUhEUgAAArwAAAGwCAMAAAB8TkaXAAABIFBMVEUAAAAAADoAAGYAAP8AOjoAOmYAOpAAZrYzMzM6AAA6ADo6AGY6OgA6Ojo6OmY6OpA6ZrY6kJA6kLY6kNtNTU1NTW5NTY5NbqtNjshmAABmADpmAGZmOgBmOpBmZgBmZmZmkJBmkNtmtttmtv9uTU1uTW5uTY5ubqtuq8huq+SOTU2OTW6OTY6OyP+QOgCQOjqQOmaQZgCQtmaQtpCQttuQ27aQ29uQ2/+rbk2rbm6rbo6ryKur5P+2ZgC2Zjq2kDq2tma2tpC225C22/+2/7a2/9u2///Ijk3I///bkDrbtmbbtpDb25Db/7bb/9vb///kq27k///r6+vy8vL/AAD/tmb/yI7/25D/27b/29v/5Kv//7b//8j//9v//+T///9wJiH9AAAACXBIWXMAAA7DAAAOwwHHb6hkAAAby0lEQVR4nO2dC3fbSHKFIXltWXYyTiL6IY9nkyxn7PghOomzkTwRdzczWVnMYyVNTHEjisL//xdBvwCQBEig0Y/qxr3n2KRIkBdV/alVbLKLSQpBgSrxfQIQpCvACwUrwAsFK8ALBSvACwUrwAsFK8ALBSvACwUrK/COE6aDurv//CpJvvm5wYEQtEk24F2MNjI5P2T37p5tPRCCNsoGvLP94aabJ8nfXCx+z5CtORCCGkkb3sXowb//RbLz92omlZMp03TnWB1VVAg5qtkDL+T/pQMhqLU6wCuIHa7DO9n95/3kPuNyts9ul4hKeOeHe+xinB1dHAhB7dUF3r2LrATYW79rrLBejHZ+k6b/tS+OkfDO9nmNO8mQzg+EIA11gJdNtHIaXbln51/S9D+TBxeK092zfHYubtw5Lg7UPn2oz+pS8/LSdW+9bBAa7xxP5R07x5XwFgd2CADqr+zBOynDy27Ia14O7zg/egJ4IS0ZgHdVcmrN6FxeCltbbSgO1D0JqNeyAC9/mbb4ffZSThS1fx4JOhXKY7bO+7vkoHQgBGnIArzpNK8VZN0g3kJT8BbvsE1LRQUEtZUNeNPZqyR58rO69qvfrNzN3rm4//PygRDUWvhUGRSsAC8UrAAvFKwALxSsAC8UrAAvFKwALxSsAC8UrAAvFKwALxSstOH9RUNaD9KWU7d4zQiGBnhhRtEN8Hpwi9eMYGiAF2YU3QCvB7d4zQiGBnhhRtEN8Hpwi9eMYGiAF2YU3QCvB7d4zQiGBnhhRtEN8Hpwi9eMYGiAF2YU3QCvB7d4zQiGBnhh5tAtSZKly25mgBdm7tx4Z6TSZUcz0/DqPo0XaQ5B56QHaWYMXqXuZmocAa8ZAd5NwsxrTppD0DnpQZr1oOY1Q5Uj6aR/Wz4tPCcNM4KhqXHcCO/N63N+eftu8Pwqv6gEwBpoNuQr6UGaEQxNjeMmeK8Hzzi8dydH6eULdVENgEXUzMtX0oM0W3H7+vWrA7PNLmocN8D75em/iZn39sM5m4TlRTUAVmEzLXtJdyOP8H79apfetImLGscmZcPNm6v09v2pvMhueJjJMl8QTX11p+0n0wTe6+ecWnkh76v5ZQhC1mYMR8LMK6Q181YAYBE187KWdEdCzSvUBF7UvI2T7kZYbRBqAu/dyVux2vAWqw2dkh6kWaXbvXv3rHg1e141jlvhZf+wzrs9nxaek4ZZldu9e3bobfi8ahzxDpsZ9RBeW2pwRlKA14x6CK8FK8/w/m+1uuJmVhbS3i94Q6h5WwCgbga8DuQfXr9mahwBr8OkB2lGMDQ1joDXYdKDNCMYmhpHwOsw6UGaEQxNjSPgdZj0IM0IhqbGEfA6THqQZgRDU+MIeB0mPUgzgqGpcXQL72x/yP5/fKZ+zq8VmiZJ8uCi8i5T8pX0IM0IhqbG0R68GYMV8O6eVSOba8KOGD+4ALxEzAiGpsbRGrx8i/4avI//sCfgne0nyTC79tOTi3Tx8Xh+mOxyWOcvj7P/F6Mh4CViRjA0NY7m4U3WVIb3bMyQPWOMZhezx3/8mF15cjE+SCd77IhpVjGoQ3VPre25O0t6kGYEQ1Pj6HrmPZt/pyqC+bcZvGeTDNsDxnL2Y3bjdK84VPfU2p67s6QHaUYwNDWOjmvejMjJAedynGSFApt8n/yJVw1JssMKhmwWLg61JV9JD9KMYGhqHB2vNmRELj5+yubfw6EoG86yH59ciFmXCTUvNTOCoalxdA8vX3Lgr9keHfOZODnI5uEDVe1itYGYGcHQ1Dh6gJfzOUmS+6+GkuFswj0UVUOKdV5qZm3dZC+9rS31OpipccQ7bGYEeKVkF9PtzUw7mKlxBLxmBHilGreR7mCmxhHwmhHglcLMa1kaSTWS9CDNUPN2xc2sdLJqIulBmhEMTY0j4HWY9GDMllqFuQgtNwS822Q4842THorZcpNGB6EVhoB3m0znvmnSQzFz2IS3pOahqXEEvGYUH7zO3H7BzNtGpnPfNOnBmH1FzQt4LQmrDUKA12HSgzQjGJoaR8DrMOlhmammdxbd1vvqAd5tMpP59kkPyixvN2rPraKjKWV42ZaJ3ZrPOooPp6uPQpaucpn8pKSh3LdOelBmVhtI1/aSdgNvjQpesxeQa/CyDRTpRO2xXNcymuWfXHxGHSqLk0XbwtrMy5fuVuHl6PHdlnyr++zJP7EN8GxWZT89/o/s1p/kbvhP/KdfD8WuNrO7gwzNTa1njLDM+ljzrr91UsC7GMlZV2x1n+3z3T9sBxv7SZYNYjf8f/OfptkBB6npHfFmMt8+6UGaEQxNjaPbmZdPsjvHqdzqzncBiSYOaanm5bvhxdX5dxe/Y3ea3RHvK+lBmhEMTY2jvRdsVTUv1+yR2uou4WXtc3aOC3j5bni1t/i337E51+yOeF9JD9KMYGhqHN2uNogJdDyUW90VvCmvC3J4+W54udow+VtWNaDm9WdGMDQ1jm7h5asNDESx1V3CywraMrx8N7y8yvcWp4ZXG3wlPUgzgqGpcfSwzruTb3VXM+9YrjacLUa7P0lixU9ni3+UsGKd15MZwdDUOFJ/h232V9oPrZevpAdpRjA0NY7E4Z2oViRG5SvpQZoRDE2NI3F47chX0oM0IxiaGkfA6zDpQZoRDE2NI+B1mPQgzQiGpsYR8DpMepBmBENT4wh4HSY9SDOCoalxBLwOkx6kGcHQ1DgCXodJD9Ksxk31ItPsSdbObPUgKcDrMOlBmlW7qS6Qut0gW5mtHSQFeB0mPUizDfB26MPbymztICnA6zDpQZph5u2Km1kZTHarpAdphpq3K25mZTLbbZIepBnB0NQ4OoV3MeJ/ZWp2D+tui2dfY8z3cdZpMVq501fSgzQjGJoaR3vw3rt3r2Lmrf88rva2ePHlbo/qP34GeFe11EjPulsbexrw8j35NfDOvnklPnSe/cu/7117Wzx/4OJj/kDxxOrx2Y33Xw3l0wBeruUWprbdWtl7hne9J8o6vPvDYheF+r537W3x4ikzjJf2FsnH8xuToXwawMtlr0F0c3UJzR68TWbex/kEWXzfu/a2eFHzCs6zwxW88vHZjVnZIJ8G8HJtose8Wyt7GvBuqnnL8Obf9y7u1tkWz8sGsbF48XEFXvEN80P5NIBXqA27fax5a5bK1uDNv+9de1u8OEo8sG7mlU8DeKm7hQEv+0PO9rPn3/euvS0+f6UnHiifuFRTZzWvfBrAW9J6ozCbbg0Nw4CXfe/7X397Vvq+d91t8fk6r1y4EE+sHr8Y8dWGMVYbVlTRX9SiW1ND0vCalPa2eK3cG0g6KTN7HXc3yUhoahwDhld/W7zWYBtIOikzzLxrz+dy5tWWVu4NJJ2WWUN2UfN2xc2sdDJvIulBmhEMTY0j4HWY9CDNCIamxhHwOkx6kGYEQ1PjaBreIOQr6UGaEQxNjeMGeG/fDZ5fsSuXA6YjfvnsvBoAq7CZlq+kB2lGMDQ1jvXw3p1kuL5QP11nHH85qgfADmWW5CvpQZoRDE2NYz28tx/O05vXcqK9fX+a3n0+rQfAFmdW5CvpQZoRDE2NYz28N2+uOLNcbArOyghWPGR6mMkyXxC0VfXwskJBwcsvb34oz741vwxByNeMEaQZwdDUODabea/FK7dMed1b83xByFfSgzQjGJoax2Y175e36tY6eM2dmTHRS3qQZgRD2w7v3clbtdogigU2/d79WLNUZu7MjIle0oM0IxjadnjlOi+bfGX1cDkYPM0XHKydmTHRS3qQZgRDawDvZlk7M2Oil/QgzQiGBnhhRtEN8Hpwi9JMNNFLDffS2yjA68EtRjPZvtR0F9ONArwe3GI0s9Q/eqMArwe3GM0w87Y+M2OKkSe3Zqh5256ZMUXJk3szgqEB3ljNWvUh6+y2TW3PBvB6cCNj1q4DZFe3bWp9NvrwTsQrywPAG66Z+067W2UqtOKgNXjnh4raSdKgF02bM2p1ZsZEhienZq1x6eS2TY7gLXqNrv4AeIMyM80uat4WZ2ZMdHgK2oxgaIAXZhTddOHl3Z3zrzUBvAGbNe2hZ8bN5Alowsu+PodpXPdFfoA3FLPG3UuNuBk9AU14x3urVwBvoGbue0ZXyUpo4qBVeHnRwDVtNPVaOzNjIsWTUzN9dnTcjJ4A4PXgRsvMJLsh1LyLkXpjbcP3/wLe/pkRDG0NXv69UssUA16YuXbTXSob8zeF54fN1sqsnZkx0Ut6kGYEQ6uAV3yhWdOv2LF2ZsZEL+lBmhEMrQreVrJ2ZsZEL+lBmhEMDfDCjKIbPlXmwS1eM4Khrc+888NErvTi87ww8+WmXzaMsZMCZn7dUPN6cIvXjGBogBdmFN0Arwe3eM0IhgZ4YUbRDfB6cIvXjGBoVfAuRsMKSgFvtGayCdmWXmT0QquCt/hIL9QH8XXR/CJALXfMabj5ksnar5Ux0ZsxiJk17L9LL7QqeOeHIhDspOiHWcP+u/RCq5x528jamRkTvaRTM4up5gW8MPPt1gHeSZIMGxa+1s7MmOglPUgzgqFVwjt+8D+Hw8UIfRsImpU71hHMo6n2fl2WythqGba+EzRb6hVKL4/GGqsCXg9uTuAlLhNx6pcNE1Y2zA/xeV56Zkt00MsjAXjTaePPogNex2ZfUfMWB1XC20LWzsyY4oLXmxnB0ABvgGaqAxidPBptirbNrDhoFV713jDeHiZrlvdeJJNHs+0ot5iVDqqaeXm7soafLbN2ZsYUJ7z0ZDTGrh+JxFIZUbMcFTJ5BLy2FB28qHnVQRXwqrIB67ww8+XWdZ232XYKa2dmTPSSHqQZwdCq4W0ha2dmTPSSHqQZwdAAL8wouunDy7tLY50XZv7ctOFt+ElewNsrM4KhVcHbauu7tTMzJnpJD9KMYGjVMy/ghZlfN/2at9nbE4C3V2YEQ6uCF30bYObbDUtlHtziNSMYGuCFGUU3lA0e3OI1Ixha/cw7f9noOzCtnZkx0Ut6kGYEQ6uHN53iW99h5sutM7woG8I3U83ztjTRM+RmTl3hHWPmDd5MtS3d1r7UjJtBdX3B1ux7362dmTHRS7o7s3Lf6H7A20rWzsyY6CXdnVn/Zl7AG49ZD2veSbnd0+27wfMrfu1yMBg8Oy/dAHj7Y0YwtEp4lzZg3p0cpZcv+NUvRys3AN7OZl2ae3nLo6mOZI3MNhxUAe/y1vfbD+fpzetzRu3n0+UbAG9ns05tFX3l0VgvyCZmmw7aCu/Nm6v09v2pqB8Gg6PSDQ8zVRbCUFO5755rSr4zV1J92XD9XLF688Mpm32LG5is/VoZE2ZeMwpj5l1+wVZMtFxfjpZvsHZmxkQaXtS8W802HFQJb1nLJW4GL2reXpoRDG0NXvmFFIXuTt7KxQVWL9z9eF7cAHh7ZEYwtO3wymVdNtdeDgZPT1Os85o2021T5ziPxrvpbTJrdNBa2TBBc2nHZtoNQt3m0Xwf0w3qulTWTNbOzJjCgDcQGU9YjfDZBg9umHnNSB9e9Cpza6YLBWredXjRqwxmvt1Q83pwi9eMYGjVMy/ghZlfN/2aF73KYObZreseNrxgg5k3NyyVeXCL14xgaIAXZhTdTO1hA7wwc+5maA8b4IWZezdD24AAL8zcuwFeD27xmhEMrQpelA0w8+2GF2we3OI1IxhaNbwtZO3MjIle0oM0Ixga4A3QTDUeSw10IGsuenmsgJe/XluMGnXnBbwezPKWjyZ6PzYXvTyuwzvbF8XuuNmnc6ydmTHRS3pHLTXdBbxleMd7q1cALy0zzLzqoFV4i0+iY52XqhlqXnkQ4IUZQTc9eBcjtb47wReqwMyXm2bNO5ETbkEx4N0u1XqO3gjrqaKVHr3Q1uFNx/xrgOaHzdbKrJ2ZMblwy5t+0hthLVU1MaUXWgW8om1Dsy+yArxC7ns7O5CHPLYzq4K3laydmTFh5m0vwNvtzIwJNa+G1tklGBrghRlFN8Dr3M1lN69fzEe2+fQBb/MzMyZ3bk77KP5iPLItpw94m5+ZMTmGN3BRyGNTM8BrUFtG37gw83aEFyopG3zfp9BFoZ4+Zl6YUXJD2eDBLV4zgqEBXphRdAO8HtziNSMYGuCFGUU3wOvBLV4zgqEBXphRdAO8HtziNSMYGuCFGUU3wOvBLV4zgqEBXphRdAO8HtziNSMYGuCFGUU3wOvBLV4zgqEBXphRdAO8Htx0zErt8tp1zut7HgGvd7NSo9KWPUv7nkfA690sSXS7Rfc9j4DXuxlmXl0zwOvfDDWvphnghRlFN8Db1K2iMZc9M4PSN9OJmF5ogLe6JaI1M5PSNtOKmF5ogDfS5rrbZTyPJgV4G7ppDaWumUlh5gW8qHktu2kI8Hpwi9eMYGiAF2YU3QBve7fOXR7pjbBShKEB3rK69yilN8JSMYYGeMty38vZrVzlsbsAb2u3GEdYKsbQAO+Sug4wwRFWijA0wAszim6A14NbvGYEQwO8MKPoZgre23eD51f82s33g8FRml4OBoNn54C3X2YEQ9sO793JUXr5glP8/jS9+eE0/XKEmbd/ZgRD2w7v7Yfz9OY1m2ivGcJfju4+nwLe/pkRDG07vDdvrvicK1F+f5qVEbx6SNOHmWofB0GOVA/v9fMSvHcnb3nlUMy+1n6tjInejBGkGcHQtsNbnnlv372Vt+Z1r7UzMyZ6SQ/SjGBo2+Etat705vv8pRrg7ZsZwdC2w8sqBbHaINlldcTdj1gq65kZwdC2wyvXebPJl63vspdq2eXTfMHB2pkZE72kB2lGMLQG8G6WtTMzJnpJD9KMYGiAF2YU3QCvUzfRZixd+dmqosxjCzPAa0iywWO68rNVxZjHNmaA15BWu+wCXvtmgNeQMPO6NwO8poSa17kZ4IUZRbeo4W3RbIte0m2aGey71sDNmmKGt02bQ3pJt2hmsuPldjd7ih5eqEad01spwNv8zDaqzRjRS7pFM8BLH17UvHVm1tj1H9r6QYHCS9UtXjOCoQFemFF06xO8mxpx0Uu6SbPOLchauTlTj+Dd2AKRXtINmnVv/tjGzZ36Bm9/ZTqd1QK8zc+sjTYOIb2kGzQDvMHDi5rXkZsz9QleMm7xmhEMDfDCjKIb4PXgFq8ZwdAAL8wougFeD27xmhEMDfDCjKIb4PXgFq8ZwdAAL8wougFeD27xmhEMDfDCjKIb4PXgFq8ZwdAAL8wougFeD27xmhEMDfDCjKIb4G3hVtlZTKPdGL0RDtPNDbxxiPd0bHQjRE89n3kru+vqdCmlNz2F6YayoblbJaeA158b4G3hhpqXlhvg9eAWrxnB0AAvzCi6+Ye3rulb35PeXtWZ7HsebcJb226z70lvrZpM9j2P1uGFTElzhI2ph/Bqn5kx0Ut6awHe6oMswoua15iqM9n3PFqFt9OZGRO9pAdpRjA0L/C666/FRC/pm9U8O4DXPbwOOxsy0Uv6RrXIDuD1BC+0SQZH2JgAL1OL4TEheknfKMDb2MwHvKh5N6p5dgCvB3j7nvQgzQiGBnhhRtEN8Hpwi9eMYGiAF2YU3QCvB7d4zQiGBnhhRtEN8Hpwi9eMYGiAF2YU3QCvB7d4zQiGBnhhRtEN8Hpwi9eMYGiAF2YU3QCvB7d4zQiG1hleHT10aeZWCM2DAK8ZITQPArxmhNA8CE2UoWAFeKFgBXihYAV4oWAFeKFg5QbeywHTUXr7bvD8yomjO918P3h2niI0D3I3814/v7o7OUovXzhzdKLb96fpZaShvTuiHZozeNkg3344T29en7uydKKbN1csrmhDe39KNzRn8LLfXZkNV5ZOJGfeGEOTMdENzRW8PPqsciCahg4SFWGMofGy4ekp3dBcwcsyEOXMe/PDaXr97DzG0NgLtn/4jJk3/fI2+49u9aQvOS/FGBoT6XLeEbx3n9lv7t3JW6KvW/UlZ94YQ+Pl/AvCo+YIXvlnh+yKYQddDwZPT6MNjcVENjS8wwYFK8ALBSvACwUrwAsFK8ALBSvACwUrwAsFK8C7pMVoj19O9uqOmD06rn5gwrV7lk6SnePs36fiwJrHrGv+kh84TpIHF6XLxWhY3Ck0ZWbDkvGBOmDKr6fT2gjiEeBd1iSjT9HSRovRgbw2Pxzyfzoa7zD8Jg8u+C+RupS/SuJOeSA7zflhhrY0nu1njtPs58ya/a7Mvz3TOoOgBHiXJSbJ2eO2Q1/Ay56h8VS7pPlhwvjk5E93z9SlmFHlnUITPiFzU2U83hO/c9mps4vJQY1JTAK8KxqzUWdT3Wxf/DFmf5fZzCcvMy5njz7t87/Z7KZdgXkOL3vYr7J/ewzg4jHq2KXH7gnmVJEy5Y8R5MsJlJPMUZV3SjM5sWdol+FlU6+AtxcTL+Bd1ZT/KZZ/+ScMjj1+XV0yePezY+Rd5UlQSM282b/SY9Sx5ceyu9jMWhQpnM+pKAmG6lI9dQFvfo0/Mb93ygvg7GdBfS8mXsC7KvY3mlUN/8eY5NOsAKV0yevL7FLRxW4uXjeV4C09Rh2rHqvu4mznRUoZ3gN1qQroCng52sJ4qJ6NvWDLJt5xqcqIVYB3VVndIP6Msxf0O4K6VCKVFuCx6S1/nV8z85Yeo45Vj1V3Ma9iaaNy5t0E70sx8872hbs6i8lB9gsxFX8TIhbgXdX0wZ/Yn/H54c4SgFXwlujYCq88dg3e2eM/FksblTXvErzsl+BgveYVVYM6i/l3F6xC0XrVGJIA76rmLz+xP+N83pruVJYNCsDSH+ZKeMtlw07paUp3ZQ/8u2JpI3+NVl5tWJ955YJeebWBr52pGmbMX+QB3h5q/Jf8hTubePd3+Cut8r8SvItRBriksvYFm3yMOrZ47J58R2SSFG8nCN7Gcn03v1x9wVa5zruXHzJ7cpGibOin5J/gcVbx/pYvM6wvlR0Xy19yRlWvmwSe6t/KUtnOcbr0WE4tfwknJfkcy7vkpaRwaSYtvcMmy1xWe/PiRBQVE7xgg6xr+xsiS+8Lb1L7NwbDFuD1rQZLsvWftFhW/IXCsgCvX/E3Lbap4YzaeIaORYAXClaAFwpWgBcKVoAXClaAFwpWgBcKVoAXClaAFwpWgBcyqaX9R8vvfFe9D163XWl+mMg3b+S1/IbyGzaAFzIpM/DyLaR7pWvFDZME8EJ2xGjMZknxeePZ41/zj76xTanD/FZ5IP+xgLf84Tp+s2BdXstvmH3zCvBCdsQoGx/Ijwix3UnZNbktcHnmFQdJeBcjVhRM88147BPJ4pMa8pq6YfHxX1E2QJaU0cgn35eq/YVENrtxCV55kIB3uvrRY949RfT/EdfUDZMD1LyQLUlIFx+X4B2znhUCXvkBe3nQ0sxbqG7mzS4AL2RLVTOv3N5fP/MyZTVvUTbU1byTYrs2E+CFTGq55hXw8otHxxtq3lWxvU1qteFArDYclJYflAAvZFLFaoOi9jHrm5ncfzVcjDatNqw8DV/WZY/FOi/kSi2bpHXrqQZ4IZMCvBDURIAXClaAFwpWgBcKVoAXClaAFwpWgBcKVv8PE4Vxzj09yg4AAAAASUVORK5CYII=;" vertex="1" parent="1">
          <mxGeometry x="404.98" y="290" width="404.98" height="250" as="geometry" />
        </mxCell>
      </root>
    </mxGraphModel>
  </diagram>
</mxfile>
